<svg width="20" height="20" viewBox="0 0 20 20" fill="none" xmlns="http://www.w3.org/2000/svg">
<path d="M11.8626 0.197266H0V19.3418H11.8626V0.197266ZM5.35262 15.7072H4.12297V13.4761H5.35262V15.7072ZM5.35262 11.209H4.12297V8.97782H5.35262V11.209ZM5.35262 6.7467H4.12297V4.51557H5.35262V6.7467ZM9.07776 15.7072H7.8481V13.4761H9.07776V15.7072ZM9.07776 11.209H7.8481V8.97782H9.07776V11.209ZM9.07776 6.7467H7.8481V4.51557H9.07776V6.7467Z" fill="#E5811E"/>
<path d="M19.9998 16.9315V8.04297H12.875V19.3425H17.5766C18.9148 19.3425 19.9998 18.263 19.9998 16.9315ZM17.2511 15.7439H14.8642V14.5564H17.2511V15.7439ZM17.2511 12.7571H14.8642V11.5336H17.2511V12.7571Z" fill="#E5811E"/>
</svg>
