<svg width="22" height="16" viewBox="0 0 22 16" fill="none" xmlns="http://www.w3.org/2000/svg">
<path d="M19.9404 6.5H5.54043L9.00543 3.035C9.30093 2.7395 9.44043 2.387 9.44043 2C9.44043 1.262 8.83068 0.5 7.94043 0.5C7.54218 0.5 7.19493 0.64475 6.90543 0.935L0.93693 6.9035C0.69093 7.1495 0.44043 7.45325 0.44043 8C0.44043 8.54675 0.64968 8.81 0.92493 9.08525L6.90543 15.065C7.19493 15.3553 7.54218 15.5 7.94043 15.5C8.83143 15.5 9.44043 14.738 9.44043 14C9.44043 13.613 9.30093 13.2605 9.00543 12.965L5.54043 9.5H19.9404C20.7684 9.5 21.4404 8.828 21.4404 8C21.4404 7.172 20.7684 6.5 19.9404 6.5Z" fill="#E5811E"/>
</svg>
