<svg width="16" height="17" viewBox="0 0 16 17" fill="none" xmlns="http://www.w3.org/2000/svg">
<path d="M15.1579 8.50012H13.4736C13.2503 8.50012 13.0361 8.58968 12.8782 8.74908C12.7202 8.90849 12.6315 9.12469 12.6315 9.35012C12.6315 9.57556 12.7202 9.79176 12.8782 9.95116C13.0361 10.1106 13.2503 10.2001 13.4736 10.2001V11.9001H12.4763C12.5762 11.6279 12.6287 11.3404 12.6315 11.0501C12.6316 10.4888 12.4481 9.94308 12.1096 9.49771C11.7711 9.05234 11.2964 8.7322 10.7591 8.58694C10.2219 8.44169 9.65225 8.47944 9.13847 8.69436C8.62469 8.90927 8.19554 9.28931 7.9176 9.77554C7.86177 9.87226 7.82542 9.97915 7.81064 10.0901C7.79585 10.201 7.80292 10.3138 7.83144 10.422C7.85996 10.5302 7.90937 10.6316 7.97682 10.7204C8.04428 10.8093 8.12846 10.8838 8.22453 10.9397C8.3206 10.9956 8.42666 11.0318 8.53664 11.0462C8.64661 11.0607 8.75832 11.053 8.86536 11.0238C8.9724 10.9945 9.07265 10.9442 9.16037 10.8757C9.24809 10.8072 9.32154 10.7219 9.37651 10.6247C9.45048 10.4957 9.55672 10.3886 9.68459 10.3141C9.81247 10.2396 9.95749 10.2003 10.1051 10.2001C10.3285 10.2001 10.5427 10.2897 10.7006 10.4491C10.8585 10.6085 10.9473 10.8247 10.9473 11.0501C10.9473 11.2756 10.8585 11.4918 10.7006 11.6512C10.5427 11.8106 10.3285 11.9001 10.1051 11.9001C9.8818 11.9001 9.66761 11.9897 9.50968 12.1491C9.35175 12.3085 9.26303 12.5247 9.26303 12.7501C9.26303 12.9756 9.35175 13.1918 9.50968 13.3512C9.66761 13.5106 9.8818 13.6001 10.1051 13.6001C10.3285 13.6001 10.5427 13.6897 10.7006 13.8491C10.8585 14.0085 10.9473 14.2247 10.9473 14.4501C10.9473 14.6756 10.8585 14.8918 10.7006 15.0512C10.5427 15.2106 10.3285 15.3001 10.1051 15.3001C9.95749 15.3 9.81247 15.2607 9.6846 15.1862C9.55672 15.1116 9.45048 15.0045 9.37652 14.8755C9.32155 14.7783 9.2481 14.693 9.16038 14.6245C9.07266 14.5561 8.97241 14.5057 8.86537 14.4765C8.75833 14.4472 8.64662 14.4396 8.53664 14.454C8.42667 14.4684 8.32061 14.5046 8.22454 14.5605C8.12847 14.6165 8.04429 14.691 7.97683 14.7798C7.90937 14.8687 7.85997 14.9701 7.83145 15.0782C7.80293 15.1864 7.79586 15.2992 7.81065 15.4101C7.82543 15.5211 7.86178 15.628 7.91761 15.7247C8.19555 16.2109 8.6247 16.591 9.13847 16.8059C9.65225 17.0208 10.2219 17.0585 10.7591 16.9133C11.2963 16.768 11.771 16.4479 12.1096 16.0025C12.4481 15.5572 12.6316 15.0115 12.6315 14.4501C12.6287 14.1599 12.5762 13.8723 12.4763 13.6001H13.4736V16.1501C13.4736 16.3756 13.5624 16.5918 13.7203 16.7512C13.8782 16.9106 14.0924 17.0001 14.3158 17.0001C14.5391 17.0001 14.7533 16.9106 14.9112 16.7512C15.0692 16.5918 15.1579 16.3756 15.1579 16.1501V10.2001C15.3812 10.2001 15.5954 10.1106 15.7533 9.95116C15.9113 9.79176 16 9.57556 16 9.35012C16 9.12469 15.9113 8.90849 15.7533 8.74908C15.5954 8.58968 15.3812 8.50012 15.1579 8.50012ZM5.07792 7.8564C5.13212 8.07501 5.27014 8.26293 5.46161 8.37883C5.55642 8.43621 5.6615 8.47419 5.77084 8.49059C5.88019 8.50698 5.99167 8.50148 6.09891 8.47439C6.20615 8.4473 6.30705 8.39916 6.39586 8.33271C6.48467 8.26626 6.55964 8.1828 6.61649 8.08711C6.67335 7.99141 6.71097 7.88535 6.72722 7.77498C6.74346 7.66461 6.73801 7.55209 6.71117 7.44385L5.2317 1.46853C5.12785 1.04912 4.88808 0.676778 4.55049 0.410711C4.21291 0.144644 3.7969 0.00012207 3.36859 0.00012207C2.94028 0.00012207 2.52426 0.144644 2.18668 0.410711C1.84909 0.676778 1.60932 1.04912 1.50548 1.46853L0.0251862 7.44385C-0.0290151 7.66246 0.00504088 7.89384 0.119862 8.08711C0.234683 8.28037 0.420864 8.41968 0.637447 8.47439C0.854029 8.5291 1.08327 8.49472 1.27475 8.37883C1.46622 8.26293 1.60424 8.07501 1.65844 7.8564L2.13069 5.95012H4.60592L5.07792 7.8564ZM2.55185 4.25012L3.13873 1.88108C3.15652 1.83411 3.18802 1.79369 3.22907 1.76518C3.27011 1.73667 3.31876 1.7214 3.36859 1.7214C3.41841 1.7214 3.46706 1.73667 3.50811 1.76518C3.54915 1.79369 3.58065 1.83411 3.59844 1.88108L4.18501 4.25012H2.55185ZM9.26303 4.25012H10.1051C10.3284 4.25035 10.5425 4.33998 10.7004 4.49933C10.8583 4.65869 10.947 4.87476 10.9473 5.10012V5.95012C10.9473 6.17556 11.036 6.39176 11.1939 6.55117C11.3518 6.71057 11.566 6.80012 11.7894 6.80012C12.0127 6.80012 12.2269 6.71057 12.3849 6.55117C12.5428 6.39176 12.6315 6.17556 12.6315 5.95012V5.10012C12.6308 4.42405 12.3644 3.77588 11.8907 3.29782C11.4171 2.81976 10.775 2.55086 10.1051 2.55013H9.26303C9.03968 2.55013 8.82548 2.63968 8.66756 2.79908C8.50963 2.95849 8.4209 3.17469 8.4209 3.40013C8.4209 3.62556 8.50963 3.84176 8.66756 4.00117C8.82548 4.16057 9.03968 4.25012 9.26303 4.25012ZM5.89454 11.9001H5.05242C4.82914 11.8999 4.61507 11.8103 4.45719 11.6509C4.29931 11.4916 4.21052 11.2755 4.2103 11.0501V10.2001C4.2103 9.97469 4.12157 9.75849 3.96364 9.59908C3.80572 9.43968 3.59152 9.35012 3.36817 9.35012C3.14483 9.35012 2.93063 9.43968 2.7727 9.59908C2.61478 9.75849 2.52605 9.97469 2.52605 10.2001V11.0501C2.52678 11.7262 2.79319 12.3744 3.26681 12.8524C3.74044 13.3305 4.38261 13.5994 5.05242 13.6001H5.89454C6.11788 13.6001 6.33208 13.5106 6.49001 13.3512C6.64794 13.1918 6.73666 12.9756 6.73666 12.7501C6.73666 12.5247 6.64794 12.3085 6.49001 12.1491C6.33208 11.9897 6.11788 11.9001 5.89454 11.9001Z" fill="#E5811E"/>
</svg>
