<svg width="17" height="15" viewBox="0 0 17 15" fill="none" xmlns="http://www.w3.org/2000/svg">
<path d="M13.7238 9.92617H12.1238V11.5262H13.7238M13.7238 6.72617H12.1238V8.32617H13.7238M15.3238 13.1262H8.92383V11.5262H10.5238V9.92617H8.92383V8.32617H10.5238V6.72617H8.92383V5.12617H15.3238M7.32383 3.52617H5.72383V1.92617H7.32383M7.32383 6.72617H5.72383V5.12617H7.32383M7.32383 9.92617H5.72383V8.32617H7.32383M7.32383 13.1262H5.72383V11.5262H7.32383M4.12383 3.52617H2.52383V1.92617H4.12383M4.12383 6.72617H2.52383V5.12617H4.12383M4.12383 9.92617H2.52383V8.32617H4.12383M4.12383 13.1262H2.52383V11.5262H4.12383M8.92383 3.52617V0.326172H0.923828V14.7262H16.9238V3.52617H8.92383Z" fill="#DA6901"/>
</svg>
