<svg width="48" height="45" viewBox="0 0 48 45" fill="none" xmlns="http://www.w3.org/2000/svg">
<g clip-path="url(#clip0_683_936)">
<mask id="mask0_683_936" style="mask-type:alpha" maskUnits="userSpaceOnUse" x="0" y="0" width="48" height="45">
<path d="M48 16.1934C46.0043 13.8656 44.0083 11.5389 42.012 9.21348C39.5114 6.30572 37.009 3.39972 34.5047 0.495502C33.9565 -0.140603 33.7248 -0.15705 33.0773 0.404666C32.0599 1.28469 31.0438 2.16656 30.029 3.0503C29.9031 3.16061 29.7459 3.24639 29.664 3.44527C31.2464 4.17246 32.8261 4.89831 34.4032 5.6228C35.947 6.32925 37.4943 7.02734 39.0386 7.73531C40.207 8.27122 40.628 9.4035 40.0916 10.5917C38.9989 13.0125 37.8989 15.4298 36.7914 17.8437C36.6466 18.1579 36.636 18.2832 37.0066 18.4418C38.8224 19.2186 39.7392 20.6431 39.8334 22.6091C39.8513 22.9778 39.8362 23.348 39.8362 23.8183C40.6637 23.1018 41.4147 22.4533 42.1634 21.8027C43.9706 20.2321 45.7767 18.6609 47.5818 17.0891C47.7312 16.9586 47.8609 16.8055 48 16.6628V16.1934Z" fill="#020202"/>
<path d="M10.2778 25.0569C11.9452 27.7451 12.0463 30.4413 10.049 32.9528C8.22155 35.2508 5.75799 35.8067 2.94728 35.0317C2.85608 35.1443 2.90294 35.2882 2.90269 35.4168C2.89883 37.3158 2.89841 39.2147 2.90143 41.1134C2.90773 43.385 4.50165 44.9948 6.76568 44.9961C16.0465 45.0011 25.3274 45.0011 34.6083 44.9961C36.8585 44.9961 38.4677 43.4227 38.4745 41.165C38.4932 35.0291 38.4941 28.8932 38.4773 22.7572C38.4733 20.7778 37.1421 19.462 35.1756 19.4491C33.5351 19.4385 31.8943 19.4618 30.254 19.4408C29.433 19.4302 28.7155 19.6622 28.0998 20.1999C26.9075 21.2395 25.834 22.4045 24.6848 23.4892C24.3094 23.8434 23.9363 24.2004 23.5564 24.5499C23.1765 24.8993 22.7296 25.0086 22.2212 25.0076C18.4088 24.9988 14.5963 24.9981 10.7839 25.0053C10.6206 25.0051 10.4478 24.9582 10.2778 25.0569ZM20.6882 40.765H8.26841C7.51264 40.765 7.20277 40.5712 7.19572 40.095C7.18867 39.6043 7.4877 39.4088 8.24977 39.4088C16.5448 39.4088 24.84 39.4088 33.1355 39.4088C33.2916 39.4057 33.4477 39.4118 33.6031 39.427C33.9679 39.4718 34.1694 39.7088 34.1881 40.0537C34.207 40.4277 33.9901 40.6741 33.6217 40.7503C33.4706 40.7814 33.3106 40.765 33.1544 40.765C28.9989 40.7653 24.8435 40.7653 20.6882 40.765ZM30.2543 36.1394C29.2096 36.1394 28.1648 36.1427 27.1204 36.1394C26.5913 36.1374 26.2792 35.8892 26.2618 35.4775C26.2439 35.055 26.5775 34.7675 27.1206 34.7663C29.1941 34.7617 31.2678 34.7617 33.3416 34.7663C33.8863 34.7663 34.2178 35.0532 34.2004 35.4775C34.1838 35.8874 33.8676 36.1374 33.3414 36.1394C32.3122 36.1425 31.2831 36.1394 30.2543 36.1394Z" fill="#010101"/>
<path d="M23.7631 22.4699H17.1005C14.8194 22.4699 12.5382 22.4693 10.257 22.4681C10.0867 22.4681 9.91106 22.461 9.74756 22.4198C9.45987 22.3469 9.30191 22.1414 9.27748 21.8449C9.25229 21.5276 9.39462 21.3057 9.68055 21.1688C9.84304 21.0909 10.0146 21.1002 10.1859 21.1002C14.717 21.1002 19.248 21.0995 23.7789 21.098C24.1042 21.098 24.4113 21.1233 24.6015 21.4307C24.7544 21.6789 24.8282 21.4451 24.8993 21.3773C25.3982 20.9025 25.8917 20.4217 26.3798 19.9351C26.8242 19.4923 27.2799 19.0616 27.8198 18.7393C28.0012 18.6307 28.0261 18.5012 28.0259 18.3175C28.0224 14.6766 28.0209 11.0359 28.0216 7.39539C28.0216 6.82482 27.7848 6.57356 27.2389 6.57306C22.5047 6.56901 17.7706 6.56614 13.0364 6.56445C12.7462 6.56445 12.6689 6.64517 12.6719 6.93412C12.6868 8.34626 12.68 9.75864 12.6782 11.171C12.6764 12.6097 11.9559 13.325 10.5089 13.326C9.13388 13.3273 7.75888 13.3402 6.38438 13.3169C6.02161 13.3109 5.95007 13.4242 5.95158 13.7655C5.96535 16.5431 5.96586 19.3207 5.95309 22.0984C5.95309 22.397 6.01053 22.545 6.33778 22.5949C7.08524 22.7085 7.78105 22.9929 8.41313 23.4061C8.69024 23.5875 8.96559 23.6472 9.2873 23.6467C13.4592 23.6401 17.6308 23.6318 21.8024 23.6548C22.3629 23.6578 22.8 23.5341 23.1557 23.1009C23.3192 22.9013 23.5129 22.7264 23.7631 22.4699ZM17.002 15.8813C14.7682 15.8813 12.5353 15.8808 10.3031 15.8798C10.1323 15.8798 9.95691 15.8798 9.7919 15.8436C9.4644 15.7708 9.28352 15.5494 9.2737 15.2093C9.26387 14.8692 9.44626 14.6438 9.76268 14.5489C9.90804 14.5051 10.0705 14.5084 10.2252 14.5084C14.738 14.5067 19.2509 14.5062 23.7638 14.5069C23.9508 14.5069 24.1372 14.4968 24.3143 14.5828C24.5831 14.7144 24.7151 14.9371 24.7017 15.2242C24.6884 15.5114 24.5433 15.7404 24.2553 15.8201C24.079 15.8689 23.8863 15.8781 23.7011 15.8783C21.4681 15.8825 19.235 15.8835 17.002 15.8813ZM16.9649 17.8026C19.2604 17.8026 21.556 17.8026 23.8515 17.8026C24.3851 17.8026 24.6919 18.0493 24.7068 18.466C24.7222 18.8984 24.4017 19.1633 23.8485 19.1745C23.786 19.176 23.7225 19.1745 23.661 19.1745C19.2104 19.1745 14.7598 19.1745 10.3091 19.1745C10.1076 19.1745 9.9025 19.1924 9.70675 19.1175C9.59621 19.0774 9.49822 19.0086 9.42272 18.9182C9.34722 18.8277 9.29691 18.7188 9.2769 18.6024C9.25689 18.4861 9.26789 18.3665 9.30879 18.2559C9.34968 18.1452 9.41902 18.0474 9.50975 17.9723C9.70398 17.8079 9.93399 17.7993 10.1718 17.7993C12.4363 17.8026 14.7006 17.8037 16.9649 17.8026ZM19.5461 11.2113C21.0123 11.2113 22.4785 11.2067 23.9447 11.214C24.404 11.2166 24.6912 11.4805 24.7063 11.8719C24.7206 12.2426 24.4561 12.569 24.0379 12.5708C21.0588 12.5849 18.0799 12.5849 15.1009 12.5708C14.6752 12.5687 14.4228 12.2525 14.4356 11.8719C14.448 11.4997 14.7261 11.2393 15.1475 11.214C15.2561 11.207 15.3657 11.2123 15.475 11.2123L19.5461 11.2113Z" fill="#010101"/>
<path d="M16.8117 5.1988H17.4014C20.6039 5.1988 23.8066 5.22789 27.0085 5.18513C28.3898 5.16666 29.4018 6.05579 29.3766 7.56964C29.3194 10.942 29.364 14.3158 29.3514 17.6891C29.3499 18.0383 29.42 18.1104 29.7832 18.1031C31.454 18.0694 33.1258 18.0755 34.7965 18.0909C35.1084 18.0937 35.25 18.0003 35.3787 17.7114C36.5033 15.2021 37.6493 12.7015 38.7877 10.1993C39.1225 9.46278 39.0286 9.22063 38.2922 8.8836C32.2014 6.09628 26.1106 3.30828 20.0199 0.519605C19.2929 0.186877 19.0525 0.278725 18.7135 1.02262C18.0925 2.38516 17.4727 3.74795 16.8117 5.1988Z" fill="#020202"/>
<path d="M10.1382 28.905C10.1382 26.0734 7.8749 23.8116 5.04731 23.8159C2.26658 23.8202 0.00279713 26.1055 2.67029e-05 28.9111C-0.0024929 31.7295 2.27943 34.0045 5.10047 33.9969C7.89657 33.9878 10.1389 31.7217 10.1382 28.905ZM1.44456 26.7912C1.4573 26.7228 1.47412 26.6552 1.49494 26.5888C1.67935 26.0914 2.24088 26.014 2.67193 26.4426C3.79299 27.5574 4.90834 28.6781 6.01798 29.8048C6.19609 29.9859 6.3034 30.0221 6.48882 29.8169C6.80322 29.4688 7.14181 29.1416 7.47964 28.8157C7.8419 28.466 8.21676 28.446 8.50925 28.7441C8.80173 29.0422 8.77931 29.4154 8.42611 29.7785C7.90211 30.3169 7.3724 30.8499 6.83698 31.3773C6.44146 31.767 6.08877 31.7726 5.70005 31.3847C4.37023 30.0578 3.04343 28.7276 1.71966 27.3942C1.55868 27.2308 1.45211 27.0483 1.44456 26.7912Z" fill="#020202"/>
<path d="M11.3389 7.05469C9.6948 8.70795 8.08904 10.3225 6.4596 11.9634H9.33707C9.8054 11.9634 10.2737 11.9613 10.7418 11.9634C11.0965 11.9651 11.3288 11.7906 11.3326 11.4394C11.3474 9.98598 11.3389 8.53337 11.3389 7.05469Z" fill="#020202"/>
<path d="M5.14429 34.0835C2.30319 34.0835 1.62125e-05 31.7703 1.62125e-05 28.9168C1.62125e-05 26.0632 2.30319 23.75 5.14429 23.75C7.9854 23.75 10.2886 26.0632 10.2886 28.9168C10.2886 31.7703 7.9854 34.0835 5.14429 34.0835Z" fill="#020202"/>
</mask>
<g mask="url(#mask0_683_936)">
<rect width="47.9914" height="44.9879" transform="matrix(-1 0 0 1 48 0)" fill="url(#paint0_linear_683_936)"/>
</g>
</g>
<defs>
<linearGradient id="paint0_linear_683_936" x1="15.8346" y1="12.2364" x2="35.518" y2="48.377" gradientUnits="userSpaceOnUse">
<stop stop-color="#D6282D"/>
<stop offset="1" stop-color="#F68013"/>
</linearGradient>
<clipPath id="clip0_683_936">
<rect width="48" height="45" fill="white" transform="matrix(-1 0 0 1 48 0)"/>
</clipPath>
</defs>
</svg>
