<svg width="16" height="17" viewBox="0 0 16 17" fill="none" xmlns="http://www.w3.org/2000/svg">
<path d="M14.0062 3.34115H12.0082V1.35649C12.0077 0.996899 11.8667 0.65219 11.6163 0.397918C11.3658 0.143645 11.0263 0.00055195 10.6721 0H5.32785C4.97367 0.00055195 4.63415 0.143645 4.38371 0.397918C4.13326 0.65219 3.99232 0.996899 3.99178 1.35649V3.34115H0V4.38461H1.51079L2.11305 14.6209C2.15177 15.2646 2.43084 15.8692 2.89336 16.3112C3.35588 16.7533 3.96704 16.9996 4.60226 17H11.3977C12.033 16.9996 12.6441 16.7533 13.1066 16.3112C13.5692 15.8692 13.8482 15.2646 13.8869 14.6209L14.4892 4.39504H16V3.35158L14.0062 3.34115ZM5.01953 1.35649C5.01953 1.27347 5.05201 1.19385 5.10983 1.13514C5.16766 1.07644 5.24608 1.04346 5.32785 1.04346H10.6721C10.7539 1.04346 10.8323 1.07644 10.8902 1.13514C10.948 1.19385 10.9805 1.27347 10.9805 1.35649V3.34115H5.01953V1.35649ZM6.04728 11.7911H5.01953V7.82593H6.04728V11.7911ZM8.51387 13.0599H7.48612V6.55082H8.51387V13.0599ZM10.9805 11.7911H9.95272V7.82593H10.9805V11.7911Z" fill="#DA6901"/>
</svg>
