<svg width="100" height="100" viewBox="0 0 100 100" fill="none" xmlns="http://www.w3.org/2000/svg">
<path d="M56.9931 47.7668C43.8029 47.7668 33.1102 37.074 33.1102 23.8839C33.1102 10.6937 43.8029 0.000976562 56.9931 0.000976562C70.1832 0.000976562 80.876 10.6937 80.876 23.8839C80.876 37.074 70.1832 47.7668 56.9931 47.7668Z" fill="#042C5C"/>
<path d="M87.9439 90.7594L71.1389 95.1863C63.85 97.1041 52.11 96.8793 44.9007 94.6796L38.1047 92.5959C34.2847 97.1162 28.5851 99.9989 22.2162 99.9989C10.746 99.9989 1.41311 90.666 1.41311 79.1958C1.41311 67.7221 10.746 58.3893 22.2162 58.3893C24.1599 58.3893 26.0327 58.678 27.8173 59.1778C32.1301 53.9623 37.6672 50.0144 44.4718 47.7992C48.4353 50.1251 53.0265 51.4808 57.9445 51.4808C62.8851 51.4808 67.5022 50.1113 71.4778 47.7646C84.1827 51.7454 93.1801 61.4051 97.8975 74.0495C100.538 81.1118 95.2327 88.8399 87.9439 90.7594ZM22.2698 61.1232C12.3576 61.1232 4.32347 69.1574 4.32347 79.073C4.32347 88.9852 12.3576 97.0211 22.2698 97.0211C32.1819 97.0211 40.2178 88.9869 40.2178 79.073C40.2161 69.1574 32.1837 61.1232 22.2698 61.1232Z" fill="#042C5C"/>
<path d="M32.32 88.2562C31.6888 88.9514 30.8224 89.3007 29.9509 89.3007C29.1796 89.3007 28.4014 89.024 27.7876 88.462L22.2712 83.4194L16.7566 88.462C16.1409 89.024 15.3645 89.3007 14.5933 89.3007C13.7252 89.3007 12.8588 88.9496 12.2242 88.2562C11.0292 86.9506 11.1209 84.9187 12.4282 83.7238L17.5174 79.0703L12.4282 74.4169C11.1209 73.222 11.0292 71.1935 12.2242 69.8845C13.4191 68.5754 15.4475 68.4872 16.7566 69.6804L22.2712 74.7264L27.7876 69.6804C29.0966 68.4855 31.1233 68.5771 32.32 69.8845C33.5149 71.1935 33.425 73.222 32.1159 74.4169L27.0249 79.0703L32.1159 83.7238C33.4232 84.9187 33.5132 86.9506 32.32 88.2562Z" fill="#042C5C"/>
</svg>
