<svg width="16" height="16" viewBox="0 0 16 16" fill="none" xmlns="http://www.w3.org/2000/svg">
<path d="M3.2 6.93333C4.44444 9.42222 6.57778 11.4667 9.06667 12.8L11.0222 10.8444C11.2889 10.5778 11.6444 10.4889 11.9111 10.6667C12.8889 11.0222 13.9556 11.2 15.1111 11.2C15.6444 11.2 16 11.5556 16 12.0889V15.1111C16 15.6444 15.6444 16 15.1111 16C6.75556 16 0 9.24444 0 0.888889C0 0.355556 0.444444 0 0.888889 0H4C4.53333 0 4.88889 0.355556 4.88889 0.888889C4.88889 1.95556 5.06667 3.02222 5.42222 4.08889C5.51111 4.35556 5.42222 4.71111 5.24444 4.97778L3.2 6.93333ZM9.77778 0C9.24444 0 8.88889 0.355556 8.88889 0.888889C8.88889 1.42222 9.24444 1.77778 9.77778 1.77778C10.3111 1.77778 10.6667 1.42222 10.6667 0.888889C10.6667 0.355556 10.3111 0 9.77778 0ZM12.4444 0C11.9111 0 11.5556 0.355556 11.5556 0.888889C11.5556 1.42222 11.9111 1.77778 12.4444 1.77778C12.9778 1.77778 13.3333 1.42222 13.3333 0.888889C13.3333 0.355556 12.9778 0 12.4444 0ZM15.1111 0C14.5778 0 14.2222 0.355556 14.2222 0.888889C14.2222 1.42222 14.5778 1.77778 15.1111 1.77778C15.6444 1.77778 16 1.42222 16 0.888889C16 0.355556 15.6444 0 15.1111 0ZM9.77778 2.66667C9.24444 2.66667 8.88889 3.02222 8.88889 3.55556C8.88889 4.08889 9.24444 4.44444 9.77778 4.44444C10.3111 4.44444 10.6667 4.08889 10.6667 3.55556C10.6667 3.02222 10.3111 2.66667 9.77778 2.66667ZM12.4444 2.66667C11.9111 2.66667 11.5556 3.02222 11.5556 3.55556C11.5556 4.08889 11.9111 4.44444 12.4444 4.44444C12.9778 4.44444 13.3333 4.08889 13.3333 3.55556C13.3333 3.02222 12.9778 2.66667 12.4444 2.66667ZM15.1111 2.66667C14.5778 2.66667 14.2222 3.02222 14.2222 3.55556C14.2222 4.08889 14.5778 4.44444 15.1111 4.44444C15.6444 4.44444 16 4.08889 16 3.55556C16 3.02222 15.6444 2.66667 15.1111 2.66667ZM9.77778 5.33333C9.24444 5.33333 8.88889 5.68889 8.88889 6.22222C8.88889 6.75556 9.24444 7.11111 9.77778 7.11111C10.3111 7.11111 10.6667 6.75556 10.6667 6.22222C10.6667 5.68889 10.3111 5.33333 9.77778 5.33333ZM12.4444 5.33333C11.9111 5.33333 11.5556 5.68889 11.5556 6.22222C11.5556 6.75556 11.9111 7.11111 12.4444 7.11111C12.9778 7.11111 13.3333 6.75556 13.3333 6.22222C13.3333 5.68889 12.9778 5.33333 12.4444 5.33333ZM15.1111 5.33333C14.5778 5.33333 14.2222 5.68889 14.2222 6.22222C14.2222 6.75556 14.5778 7.11111 15.1111 7.11111C15.6444 7.11111 16 6.75556 16 6.22222C16 5.68889 15.6444 5.33333 15.1111 5.33333Z" fill="#DA6901"/>
</svg>
