<svg width="14" height="18" viewBox="0 0 14 18" fill="none" xmlns="http://www.w3.org/2000/svg">
<path d="M11.5715 0.0765686H2.42867C1.9437 0.0765686 1.4786 0.244298 1.13567 0.542859C0.79275 0.84142 0.600098 1.24636 0.600098 1.66858V15.9967C0.600098 16.419 0.79275 16.8239 1.13567 17.1225C1.4786 17.421 1.9437 17.5887 2.42867 17.5887H11.5715C12.0565 17.5887 12.5216 17.421 12.8645 17.1225C13.2074 16.8239 13.4001 16.419 13.4001 15.9967V1.66858C13.4001 1.24636 13.2074 0.84142 12.8645 0.542859C12.5216 0.244298 12.0565 0.0765686 11.5715 0.0765686ZM11.5715 14.4047H2.42867V3.2606H11.5715V14.4047ZM10.6572 9.62866H7.91438V5.64862H6.08581V9.62866H3.34295L7.0001 12.8127L10.6572 9.62866Z" fill="#E5811E"/>
</svg>
