<svg width="20" height="19" viewBox="0 0 20 19" fill="none" xmlns="http://www.w3.org/2000/svg">
<path d="M18.571 5.12891V10.7146C18.571 11.1836 18.4786 11.648 18.2992 12.0813C18.1197 12.5147 17.8566 12.9084 17.525 13.24C17.1933 13.5716 16.7996 13.8347 16.3663 14.0142C15.933 14.1937 15.4686 14.286 14.9996 14.286H5.71387V15.0003C5.71556 15.5681 5.94187 16.1122 6.34337 16.5137C6.74487 16.9152 7.28892 17.1415 7.85672 17.1432H16.0924C16.2042 17.1446 16.3141 17.1715 16.4139 17.2218L18.9639 18.4932C19.0637 18.5434 19.1736 18.5703 19.2853 18.5718C19.419 18.5717 19.55 18.5346 19.6639 18.4646C19.7668 18.4003 19.8516 18.3108 19.9104 18.2045C19.9691 18.0983 19.9998 17.9789 19.9996 17.8575V7.14319C19.9983 6.70109 19.8604 6.27019 19.6046 5.90957C19.3489 5.54896 18.9878 5.27627 18.571 5.12891Z" fill="#E5811E"/>
<path d="M17.1429 10.7143V2.14286C17.1429 1.57454 16.9171 1.02949 16.5152 0.627628C16.1134 0.225765 15.5683 0 15 0H2.14286C1.57454 0 1.02949 0.225765 0.627628 0.627628C0.225765 1.02949 5.03247e-08 1.57454 5.03247e-08 2.14286V15C-5.04637e-05 15.1346 0.037928 15.2665 0.109559 15.3804C0.181191 15.4944 0.28356 15.5858 0.40487 15.6441C0.526181 15.7024 0.661496 15.7252 0.795223 15.71C0.92895 15.6947 1.05565 15.642 1.16071 15.5579L4.34071 13.0136C4.46705 12.9125 4.62395 12.8574 4.78571 12.8571H15C15.5683 12.8571 16.1134 12.6314 16.5152 12.2295C16.9171 11.8276 17.1429 11.2826 17.1429 10.7143ZM9.22857 9.55714C9.19649 9.64578 9.14531 9.72628 9.07865 9.79294C9.012 9.85959 8.9315 9.91078 8.84286 9.94286C8.75732 9.98052 8.66489 9.99997 8.57143 9.99997C8.47797 9.99997 8.38553 9.98052 8.3 9.94286C8.21136 9.91078 8.13086 9.85959 8.0642 9.79294C7.99755 9.72628 7.94637 9.64578 7.91429 9.55714C7.87768 9.47127 7.85827 9.37905 7.85714 9.28571C7.85991 9.09662 7.93388 8.91553 8.06429 8.77857C8.13376 8.71553 8.21347 8.66481 8.3 8.62857C8.38521 8.58972 8.47778 8.56961 8.57143 8.56961C8.66508 8.56961 8.75764 8.58972 8.84286 8.62857C8.92939 8.66481 9.0091 8.71553 9.07857 8.77857C9.21014 8.91477 9.2843 9.09635 9.28571 9.28571C9.28458 9.37905 9.26517 9.47127 9.22857 9.55714ZM9.365 7.05714C9.32613 7.08045 9.29435 7.11392 9.27308 7.15394C9.25181 7.19396 9.24186 7.23903 9.24429 7.28428C9.24429 7.47372 9.16903 7.65541 9.03508 7.78936C8.90112 7.92332 8.71944 7.99857 8.53 7.99857C8.34056 7.99857 8.15888 7.92332 8.02492 7.78936C7.89097 7.65541 7.81571 7.47372 7.81571 7.28428C7.81085 6.95654 7.90325 6.6347 8.08124 6.35945C8.25923 6.0842 8.51482 5.86789 8.81571 5.73786C8.96592 5.67556 9.09205 5.56651 9.17541 5.42688C9.25876 5.28725 9.2949 5.12448 9.27847 4.9627C9.26203 4.80091 9.1939 4.64873 9.08417 4.52872C8.97444 4.40871 8.82895 4.32725 8.66928 4.29643C8.4913 4.26398 8.30757 4.2956 8.15067 4.38568C7.99378 4.47577 7.87385 4.6185 7.81214 4.78857C7.7474 4.96546 7.61541 5.10961 7.4449 5.18966C7.27439 5.2697 7.07916 5.27915 6.90172 5.21595C6.72427 5.15276 6.57898 5.02202 6.49745 4.85222C6.41593 4.68241 6.40478 4.48727 6.46643 4.30929C6.58791 3.9659 6.79331 3.65833 7.06395 3.41455C7.33458 3.17077 7.66187 2.99851 8.01604 2.91345C8.37021 2.82838 8.74002 2.83321 9.09185 2.92748C9.44368 3.02176 9.76637 3.20249 10.0306 3.45325C10.2947 3.70401 10.492 4.01683 10.6045 4.36327C10.717 4.70971 10.7411 5.07877 10.6746 5.43689C10.6081 5.79501 10.4532 6.13083 10.2238 6.41381C9.99446 6.69678 9.69802 6.91793 9.36143 7.05714H9.365Z" fill="#E5811E"/>
</svg>
