<svg width="16" height="19" viewBox="0 0 16 19" fill="none" xmlns="http://www.w3.org/2000/svg">
<path d="M8.4563 0.490753C8.74701 0.549845 9.04084 0.594424 9.32529 0.669586C11.2529 1.1755 12.7268 2.88867 12.9523 4.86464C12.972 4.9749 13.023 5.07725 13.0993 5.15959C13.2847 5.36952 13.3988 5.60175 13.3993 5.88529C13.3993 6.75751 13.3993 7.6299 13.3993 8.50247C13.4012 8.63673 13.3746 8.76987 13.3213 8.89321C13.268 9.01656 13.1891 9.12733 13.0899 9.21832C13.0508 9.25194 13.0206 9.29453 13.0018 9.34241C12.983 9.39028 12.9762 9.44198 12.982 9.49305C13.0138 10.1275 12.9091 10.7371 12.5731 11.2834C11.9792 12.2533 11.1143 12.7825 9.96506 12.8131C9.35186 12.8297 8.73763 12.8188 8.12392 12.8167C7.73371 12.8167 7.46436 12.5628 7.46176 12.203C7.45915 11.8433 7.72225 11.581 8.1135 11.5748C8.68658 11.567 9.25965 11.5696 9.83273 11.5748C10.4714 11.5784 10.9893 11.3399 11.379 10.832C11.7176 10.3914 11.7697 9.88026 11.7176 9.35776C11.7056 9.23802 11.5514 9.13227 11.4623 9.01979C11.3243 9.29918 11.2019 9.57858 11.0508 9.84449C10.9399 10.0355 10.8139 10.2175 10.6741 10.3888C10.473 10.6402 10.2 10.7552 9.87649 10.7516C9.28622 10.7516 8.69595 10.7516 8.10517 10.7516C7.62534 10.7516 7.22992 10.9403 6.9387 11.3192C6.86315 11.4172 6.80324 11.4151 6.70738 11.3711C5.85715 10.9932 5.24239 10.3696 4.80842 9.56095C4.71308 9.38419 4.63441 9.1981 4.54272 9.00579C4.35569 9.28052 4.11343 9.45365 3.7873 9.50652C3.20172 9.60086 2.61041 9.14108 2.6026 8.55223C2.59009 7.64511 2.59582 6.73798 2.6026 5.83034C2.6026 5.57116 2.72763 5.35501 2.89955 5.15959C2.97583 5.07725 3.02681 4.9749 3.04647 4.86464C3.17567 3.79794 3.64885 2.80163 4.39509 2.02504C5.14132 1.24845 6.12042 0.733404 7.18564 0.557102C7.30546 0.537405 7.42477 0.512524 7.54459 0.490234L8.4563 0.490753ZM11.4259 5.39596C11.5092 5.30214 11.5947 5.21557 11.6681 5.11967C11.6952 5.07869 11.7069 5.02947 11.701 4.98076C11.4405 2.98353 9.63476 1.55079 7.63264 1.74932C6.79246 1.83437 6.00585 2.19953 5.40056 2.7855C4.79527 3.37146 4.40685 4.14382 4.29838 4.97713C4.28952 5.02034 4.29616 5.06527 4.31714 5.10412C4.39789 5.2078 4.4901 5.30214 4.57346 5.39492C5.25385 3.92486 6.27289 2.86171 7.99889 2.8612C9.72488 2.86068 10.745 3.92123 11.4274 5.39596H11.4259Z" fill="#E5811E"/>
<path d="M13.0854 12.0394C14.4837 12.8921 15.4064 14.0906 15.8205 15.6679C15.9768 16.2692 16.017 16.883 15.994 17.5008C15.9758 17.9907 15.5674 18.3592 15.05 18.3592H0.969034C0.389185 18.3598 0.0182491 17.9772 0.00261972 17.3977C-0.0338487 16.0292 0.308955 14.7753 1.12376 13.6655C1.95733 12.5288 3.06597 11.7906 4.42989 11.4262C4.48289 11.4064 4.54076 11.4033 4.59558 11.4174C4.65041 11.4315 4.69952 11.4621 4.73622 11.505C5.25696 12.0266 5.89373 12.4191 6.59507 12.6506C6.66775 12.6786 6.72798 12.7316 6.76491 12.7999C7.03322 13.3322 7.46719 13.6292 8.0585 13.6391C8.78787 13.6546 9.52141 13.6619 10.2466 13.6147C11.3599 13.5421 12.2565 13.0248 12.9619 12.1721C12.988 12.1405 13.014 12.1079 13.038 12.0768C13.0529 12.0632 13.0687 12.0507 13.0854 12.0394Z" fill="#E5811E"/>
</svg>
