<svg width="45" height="48" viewBox="0 0 45 48" fill="none" xmlns="http://www.w3.org/2000/svg">
<path d="M45 18.5806V12.3871H42.0968V6.19355H36.7389L35.2873 3.09677H31.9355V0H13.0645V3.09677H9.71274L8.26113 6.19355H2.90323V12.3871H0V18.5806H1.45161V43.3548H0V48H45V43.3548H43.5484V18.5806H45ZM40.6452 12.3871H36.9973C37.4581 11.7383 37.7419 10.9394 37.7419 10.0645C37.7419 9.18968 37.4581 8.39071 36.9973 7.74194H40.6452V12.3871ZM27.5806 12.3871H17.4194V10.8387H27.5806V12.3871ZM15.9677 9.29032V12.3871H13.7715C14.2323 11.7383 14.5161 10.9394 14.5161 10.0645C14.5161 9.18968 14.2323 8.39071 13.7715 7.74194H31.2278C30.7677 8.39071 30.4839 9.18968 30.4839 10.0645C30.4839 10.9394 30.7677 11.7383 31.2285 12.3871H29.0323V9.29032H15.9677ZM8.70968 10.0645C8.70968 8.784 9.68661 7.74194 10.8871 7.74194C12.0876 7.74194 13.0645 8.784 13.0645 10.0645C13.0645 11.345 12.0876 12.3871 10.8871 12.3871C9.68661 12.3871 8.70968 11.345 8.70968 10.0645ZM31.9355 10.0645C31.9355 8.784 32.9124 7.74194 34.1129 7.74194C35.3134 7.74194 36.2903 8.784 36.2903 10.0645C36.2903 11.345 35.3134 12.3871 34.1129 12.3871C32.9124 12.3871 31.9355 11.345 31.9355 10.0645ZM14.5161 1.54839H30.4839V3.09677H14.5161V1.54839ZM10.6098 4.64516H34.3902L35.116 6.19355H9.88403L10.6098 4.64516ZM4.35484 7.74194H8.00274C7.54186 8.39071 7.25806 9.18968 7.25806 10.0645C7.25806 10.9394 7.54186 11.7383 8.00274 12.3871H4.35484V7.74194ZM1.45161 13.9355H43.5484V17.0323H1.45161V13.9355ZM42.0968 29.4194H30.4839V27.871H42.0968V29.4194ZM29.0323 46.4516H15.9677V33.2903C15.9677 29.4488 18.8978 26.3226 22.5 26.3226C26.1022 26.3226 29.0323 29.4488 29.0323 33.2903V46.4516ZM2.90323 27.871H14.5161V29.4194H2.90323V27.871ZM42.0968 26.3226H39.1747C39.6356 25.6738 39.9194 24.8748 39.9194 24C39.9194 23.1252 39.6356 22.3262 39.1747 21.6774H42.0968V26.3226ZM38.4677 24C38.4677 25.2805 37.4908 26.3226 36.2903 26.3226C35.0898 26.3226 34.1129 25.2805 34.1129 24C34.1129 22.7195 35.0898 21.6774 36.2903 21.6774C37.4908 21.6774 38.4677 22.7195 38.4677 24ZM33.406 26.3226H30.4839V21.6774H33.406C32.9451 22.3262 32.6613 23.1252 32.6613 24C32.6613 24.8748 32.9451 25.6738 33.406 26.3226ZM29.0323 28.409C27.5865 26.215 25.2 24.7742 22.5 24.7742C19.8 24.7742 17.4135 26.215 15.9677 28.409V21.6774H29.0323V28.409ZM14.5161 26.3226H11.594C12.0549 25.6738 12.3387 24.8748 12.3387 24C12.3387 23.1252 12.0549 22.3262 11.594 21.6774H14.5161V26.3226ZM10.8871 24C10.8871 25.2805 9.91016 26.3226 8.70968 26.3226C7.50919 26.3226 6.53226 25.2805 6.53226 24C6.53226 22.7195 7.50919 21.6774 8.70968 21.6774C9.91016 21.6774 10.8871 22.7195 10.8871 24ZM5.82532 26.3226H2.90323V21.6774H5.82532C5.36444 22.3262 5.08065 23.1252 5.08065 24C5.08065 24.8748 5.36444 25.6738 5.82532 26.3226ZM2.90323 30.9677H14.5161V33.2903V43.3548H13.0645V40.2581H11.6129V32.5161H5.80645V40.2581H4.35484V43.3548H2.90323V30.9677ZM10.1613 40.2581H7.25806V34.0645H10.1613V40.2581ZM11.6129 41.8064V43.3548H5.80645V41.8064H11.6129ZM1.45161 44.9032H14.5161V46.4516H1.45161V44.9032ZM43.5484 46.4516H30.4839V44.9032H43.5484V46.4516ZM37.7419 40.2581H34.8387V34.0645H37.7419V40.2581ZM39.1936 41.8064V43.3548H33.3871V41.8064H39.1936ZM40.6452 43.3548V40.2581H39.1936V32.5161H33.3871V40.2581H31.9355V43.3548H30.4839V33.2903V30.9677H42.0968V43.3548H40.6452ZM42.0968 20.129H2.90323V18.5806H42.0968V20.129Z" fill="currentColor" />
</svg>
