<svg width="10" height="14" viewBox="0 0 10 14" fill="none" xmlns="http://www.w3.org/2000/svg">
<path d="M5 6.33939C4.5264 6.33939 4.0722 6.16363 3.73731 5.85077C3.40242 5.53791 3.21429 5.11358 3.21429 4.67113C3.21429 4.22868 3.40242 3.80435 3.73731 3.49149C4.0722 3.17863 4.5264 3.00287 5 3.00287C5.4736 3.00287 5.9278 3.17863 6.26269 3.49149C6.59758 3.80435 6.78571 4.22868 6.78571 4.67113C6.78571 4.89021 6.73953 5.10715 6.64979 5.30955C6.56004 5.51195 6.42851 5.69586 6.26269 5.85077C6.09687 6.00568 5.90002 6.12857 5.68336 6.21241C5.46671 6.29624 5.2345 6.33939 5 6.33939ZM5 0C3.67392 0 2.40215 0.492136 1.46447 1.36814C0.526784 2.24415 0 3.43227 0 4.67113C0 8.17448 5 13.3461 5 13.3461C5 13.3461 10 8.17448 10 4.67113C10 3.43227 9.47322 2.24415 8.53553 1.36814C7.59785 0.492136 6.32608 0 5 0Z" fill="#E5811E"/>
</svg>
