<svg width="68" height="48" viewBox="0 0 68 48" fill="none" xmlns="http://www.w3.org/2000/svg">
<path d="M13.9508 0.283661C13.9508 0.567322 11.8544 5.65432 11.6214 5.91907C11.5498 5.99471 11.3168 5.23828 11.1018 4.2171C10.6001 1.94781 10.5822 1.89108 10.5643 2.38276C10.5464 2.60968 10.2955 3.76324 9.97299 4.93571C9.47129 6.8457 9.39961 7.46975 9.31002 10.4009C9.20252 13.6157 9.1846 13.7481 8.61122 15.1664C7.0882 18.8918 4.56177 22.2769 0.691493 25.7754C0.100201 26.3049 -0.0431423 26.5318 0.118119 26.702C0.333135 26.9289 0.745247 26.7776 1.55155 26.1725L1.94575 25.851L1.90991 30.8434L1.85616 35.8359L0.960263 35.9304L0.0643654 36.025L0.0106116 37.6135C-0.0252243 38.7671 0.0285295 39.2587 0.189791 39.3533C0.315217 39.4478 1.892 39.5235 3.68379 39.5235H6.96277L6.99861 43.7406L7.05236 47.9388L13.9329 47.9955C18.7707 48.0144 20.885 47.9766 21.0463 47.8253C21.2255 47.674 21.2971 46.9365 21.333 45.2345L21.3867 42.8518L27.2101 41.1876C30.4174 40.2799 33.2305 39.5424 33.4813 39.5235C33.7322 39.5235 36.6886 40.2988 40.0572 41.2633L46.1852 42.9842L46.2389 45.4615L46.2927 47.9388L53.1732 47.9955C58.1006 48.0144 60.1253 47.9766 60.2866 47.8253C60.4837 47.6551 60.5374 46.7474 60.5374 43.5704V39.5235H63.9956C65.877 39.5235 67.5433 39.4478 67.6688 39.3533C67.83 39.2587 67.8838 38.7671 67.8479 37.6135L67.7942 36.025L66.8625 35.9683L65.9128 35.9115V30.9947C65.9128 28.3094 65.9666 26.0968 66.0203 26.0968C66.0741 26.0968 66.3249 26.267 66.5758 26.4751C67.1133 26.91 67.7046 26.9667 67.7046 26.5885C67.7046 26.4562 67.1491 25.851 66.4503 25.2459C63.6372 22.8253 61.2362 19.6672 59.6415 16.32C58.4052 13.6914 58.3335 13.3888 58.2081 10.2118C58.1185 7.77232 58.011 6.99698 57.6168 5.67323C57.348 4.78442 57.0793 3.61195 57.0255 3.08245C56.9001 2.04236 56.5955 1.89108 56.5955 2.87444C56.5955 3.3472 56.2909 4.76551 55.9504 5.86234C55.8429 6.18382 53.5494 0.926624 53.5494 0.359303C53.5494 0.170197 53.4778 0 53.3703 0C53.2807 0 53.1911 0.132374 53.1911 0.283661C53.1911 0.586231 51.0947 5.65432 50.8797 5.91907C50.7363 6.07035 49.9838 3.08245 49.9479 2.36384C49.9479 2.15583 49.7508 2.83661 49.5179 3.87671C49.285 4.9168 48.9804 6.146 48.8191 6.61876C48.6399 7.18609 48.5324 8.13163 48.5324 9.39865V11.3465H33.768H18.9857L18.932 9.30409C18.8782 7.71559 18.7349 6.8646 18.2869 5.29501C17.9644 4.19819 17.7135 3.08245 17.7135 2.79879C17.7135 2.51513 17.6419 2.23147 17.5344 2.17474C17.4269 2.09909 17.3552 2.34493 17.3552 2.74206C17.3552 3.32829 17.0685 4.68987 16.7101 5.86234C16.6026 6.18382 14.3091 0.945538 14.3091 0.378216C14.3091 0.170197 14.2375 0 14.13 0C14.0404 0 13.9508 0.132374 13.9508 0.283661ZM11.0839 9.73904C11.0839 11.2141 11.0481 11.3465 10.7255 11.3465C10.403 11.3465 10.3672 11.2141 10.3672 9.73904C10.3672 8.264 10.403 8.13163 10.7255 8.13163C11.0481 8.13163 11.0839 8.264 11.0839 9.73904ZM16.1009 9.73904V11.3465H14.0404H11.9798V9.73904V8.13163H14.0404H16.1009V9.73904ZM17.8927 9.73904C17.8927 11.3275 17.8927 11.3465 17.4448 11.3465C16.9968 11.3465 16.9968 11.3275 16.9968 9.73904C16.9968 8.15054 16.9968 8.13163 17.4448 8.13163C17.8927 8.13163 17.8927 8.15054 17.8927 9.73904ZM50.3242 9.73904C50.3242 11.2141 50.2884 11.3465 49.9658 11.3465C49.6433 11.3465 49.6075 11.2141 49.6075 9.73904C49.6075 8.264 49.6433 8.13163 49.9658 8.13163C50.2884 8.13163 50.3242 8.264 50.3242 9.73904ZM55.3412 9.73904V11.3465H53.2807H51.2201V9.73904V8.13163H53.2807H55.3412V9.73904ZM57.133 9.73904C57.133 11.3275 57.133 11.3465 56.6851 11.3465C56.2371 11.3465 56.2371 11.3275 56.2371 9.73904C56.2371 8.15054 56.2371 8.13163 56.6851 8.13163C57.133 8.13163 57.133 8.15054 57.133 9.73904ZM17.8569 13.1808L17.8031 13.7103H14.13H10.4568L10.403 13.1808L10.3493 12.6702H14.13H17.9106L17.8569 13.1808ZM48.5324 13.3321V13.994H33.7501H18.9678V13.3321V12.6702H33.7501H48.5324V13.3321ZM57.0972 13.1808L57.0434 13.7103H53.3703H49.6971L49.6433 13.1808L49.5896 12.6702H53.3703H57.1509L57.0972 13.1808ZM17.8927 17.1142V19.6672H14.13H10.3672V17.1142V14.5613H14.13H17.8927V17.1142ZM57.133 17.1142V19.6672H53.3703H49.6075V17.1142V14.5613H53.3703H57.133V17.1142ZM48.5324 25.4161V35.6846L46.884 35.817C44.7517 35.9683 22.7485 35.9683 20.6162 35.817L18.9678 35.6846V25.4161V15.1286H33.7501H48.5324V25.4161ZM59.8207 27.1748V35.7413H59.0144H58.2081V25.5673L58.226 15.4123L59.0144 17.0197L59.8207 18.6271V27.1748ZM9.29211 25.8132V35.7413H8.57539H7.85867V27.2315V18.7217L8.52164 17.3033C8.89791 16.528 9.22044 15.885 9.23835 15.885C9.27419 15.885 9.29211 20.348 9.29211 25.8132ZM7.14195 27.8934V35.9304H6.24606H5.35016V29.1415V22.3336L6.21022 21.1044C6.67609 20.4425 7.07028 19.8752 7.10612 19.8752C7.12404 19.8563 7.14195 23.4683 7.14195 27.8934ZM61.505 21.1611L62.3292 22.2769V29.1226V35.9494L61.4871 35.8926L60.627 35.8359L60.5733 27.9312C60.5553 23.6006 60.5553 20.0454 60.5912 20.0454C60.627 20.0454 61.0391 20.556 61.505 21.1611ZM17.8569 21.407L17.9106 21.9365H14.1479H10.3672V21.5015C10.3672 21.2557 10.4209 20.9909 10.4926 20.9153C10.5643 20.8586 12.2306 20.8207 14.2016 20.8397L17.8031 20.8964L17.8569 21.407ZM57.0972 21.407L57.1509 21.9365H53.3882H49.6075V21.5015C49.6075 21.2557 49.6612 20.9909 49.7329 20.9153C49.8046 20.8586 51.4709 20.8207 53.4419 20.8397L57.0434 20.8964L57.0972 21.407ZM17.8569 25.2837L17.9106 27.7988H14.13H10.3672V25.3782C10.3672 24.0356 10.4209 22.882 10.4926 22.8064C10.5643 22.7496 12.2306 22.7118 14.2016 22.7307L17.8031 22.7875L17.8569 25.2837ZM57.0972 25.2837L57.1509 27.7988H53.3703H49.6075V25.3782C49.6075 24.0356 49.6612 22.882 49.7329 22.8064C49.8046 22.7496 51.4709 22.7118 53.4419 22.7307L57.0434 22.7875L57.0972 25.2837ZM4.45426 29.6899V35.9304H3.55836H2.66247V30.5976V25.2648L3.50461 24.3571C3.97048 23.8654 4.38259 23.4493 4.40051 23.4493C4.43634 23.4493 4.45426 26.2481 4.45426 29.6899ZM65.0169 30.5787V35.9304H64.121H63.2251V29.6521V23.3737L64.121 24.3003L65.0169 25.227V30.5787ZM17.8927 29.5953V30.0681H14.13H10.3672V29.5953V29.1226H14.13H17.8927V29.5953ZM57.133 29.5953V30.0681H53.3703H49.6075V29.5953V29.1226H53.3703H57.133V29.5953ZM17.8927 33.3775V35.7413H14.13H10.3672V33.3775V31.0136H14.13H17.8927V33.3775ZM57.133 33.3775V35.7413H53.3703H49.6075V33.3775V31.0136H53.3703H57.133V33.3775ZM66.8087 37.727V38.3888H33.9293H1.04985V37.727V37.0651H33.9293H66.8087V37.727ZM20.1862 43.1544L20.1325 46.8041L14.0941 46.8609L8.03785 46.8987V43.2111V39.5235H14.13H20.2221L20.1862 43.1544ZM26.135 40.6581C24.0207 41.2822 22.0676 41.8306 21.7988 41.8873L21.2971 42.0197V40.7716V39.5235L25.6512 39.5424L29.9873 39.5613L26.135 40.6581ZM46.2031 40.8661C46.2031 42.0953 46.1672 42.1899 45.8626 42.0764C45.6835 42.0197 43.7125 41.4524 41.5086 40.8283C39.3226 40.2043 37.4412 39.6748 37.3337 39.637C37.2441 39.5802 39.1972 39.5424 41.6878 39.5424L46.2031 39.5235V40.8661ZM59.4265 43.1544L59.3728 46.8041L53.3344 46.8609L47.2781 46.8987V43.2111V39.5235H53.3703H59.4624L59.4265 43.1544Z" fill="currentColor"/>
<path d="M11.7467 16.0364C11.5317 16.2822 11.4421 16.736 11.4421 17.5492V18.7217H12.5172H13.5923V17.6249C13.5923 16.32 13.2519 15.696 12.5351 15.696C12.2664 15.696 11.908 15.8472 11.7467 16.0364Z" fill="currentColor"/>
<path d="M14.9721 16.0364C14.7571 16.2822 14.6675 16.736 14.6675 17.5492V18.7217H15.7426H16.8176V17.6249C16.8176 16.32 16.4772 15.696 15.7605 15.696C15.4917 15.696 15.1333 15.8472 14.9721 16.0364Z" fill="currentColor"/>
<path d="M50.9872 16.0364C50.7722 16.2822 50.6826 16.736 50.6826 17.5492V18.7217H51.7577H52.8328V17.6249C52.8328 16.32 52.4923 15.696 51.7756 15.696C51.5068 15.696 51.1485 15.8472 50.9872 16.0364Z" fill="currentColor"/>
<path d="M54.2123 16.0364C53.9973 16.2822 53.9077 16.736 53.9077 17.5492V18.7217H54.9828H56.0579V17.6249C56.0579 16.32 55.7174 15.696 55.0007 15.696C54.7319 15.696 54.3736 15.8472 54.2123 16.0364Z" fill="currentColor"/>
<path d="M11.7467 24.1679C11.5317 24.4138 11.4421 24.8676 11.4421 25.6808V26.8533H12.5172H13.5923V25.7564C13.5923 24.4516 13.2519 23.8275 12.5351 23.8275C12.2664 23.8275 11.908 23.9788 11.7467 24.1679Z" fill="currentColor"/>
<path d="M14.9721 24.1679C14.7571 24.4138 14.6675 24.8676 14.6675 25.6808V26.8533H15.7426H16.8176V25.7564C16.8176 24.4516 16.4772 23.8275 15.7605 23.8275C15.4917 23.8275 15.1333 23.9788 14.9721 24.1679Z" fill="currentColor"/>
<path d="M50.9872 24.1679C50.7722 24.4138 50.6826 24.8676 50.6826 25.6808V26.8533H51.7577H52.8328V25.7564C52.8328 24.4516 52.4923 23.8275 51.7756 23.8275C51.5068 23.8275 51.1485 23.9788 50.9872 24.1679Z" fill="currentColor"/>
<path d="M54.2123 24.1679C53.9973 24.4138 53.9077 24.8676 53.9077 25.6808V26.8533H54.9828H56.0579V25.7564C56.0579 24.4516 55.7174 23.8275 55.0007 23.8275C54.7319 23.8275 54.3736 23.9788 54.2123 24.1679Z" fill="currentColor"/>
<path d="M11.729 32.3185C11.4961 32.5832 11.4423 32.9426 11.4781 33.8692L11.5319 35.0795H12.5174H13.5029L13.5566 33.9826C13.6283 32.6211 13.2879 31.9592 12.5353 31.9592C12.2665 31.9592 11.8903 32.1105 11.729 32.3185Z" fill="currentColor"/>
<path d="M14.9541 32.3185C14.7212 32.5832 14.6674 32.9426 14.7032 33.8692L14.757 35.0795H15.7425H16.728L16.7817 33.907C16.8176 32.9236 16.7638 32.6589 16.4592 32.3374C16.0112 31.8646 15.3483 31.8457 14.9541 32.3185Z" fill="currentColor"/>
<path d="M50.9692 32.3185C50.7363 32.5832 50.6825 32.9426 50.7184 33.8692L50.7721 35.0795H51.7576H52.7431L52.7969 33.9826C52.8685 32.6211 52.5281 31.9592 51.7755 31.9592C51.5068 31.9592 51.1305 32.1105 50.9692 32.3185Z" fill="currentColor"/>
<path d="M54.1946 32.3185C53.9616 32.5832 53.9079 32.9426 53.9437 33.8692L53.9975 35.0795H54.983H55.9684L56.0222 33.907C56.058 32.9236 56.0043 32.6589 55.6997 32.3374C55.2517 31.8646 54.5888 31.8457 54.1946 32.3185Z" fill="currentColor"/>
</svg>
