<svg width="20" height="18" viewBox="0 0 20 18" fill="none" xmlns="http://www.w3.org/2000/svg">
<path d="M18.8126 0.863281H6.93539C6.28071 0.863281 5.74805 1.39328 5.74805 2.0447V3.75745C5.74805 4.40887 6.28071 4.93887 6.93539 4.93887H18.8126C19.4672 4.93887 19.9999 4.40887 19.9999 3.75745V2.0447C19.9999 1.39328 19.4672 0.863281 18.8126 0.863281Z" fill="#E5811E"/>
<path d="M18.8126 7.11914H6.93539C6.28071 7.11914 5.74805 7.64914 5.74805 8.30056V10.0133C5.74805 10.6647 6.28071 11.1947 6.93539 11.1947H18.8126C19.4672 11.1947 19.9999 10.6647 19.9999 10.0133V8.30056C19.9999 7.64914 19.4672 7.11914 18.8126 7.11914Z" fill="#E5811E"/>
<path d="M18.8126 13.375H6.93539C6.28071 13.375 5.74805 13.905 5.74805 14.5565V16.2692C5.74805 16.9206 6.28071 17.4506 6.93539 17.4506H18.8126C19.4672 17.4506 19.9999 16.9206 19.9999 16.2692V14.5565C19.9999 13.905 19.4672 13.375 18.8126 13.375Z" fill="#E5811E"/>
<path d="M3.09529 0.863281H1.18734C0.53266 0.863281 0 1.39328 0 2.0447V3.75745C0 4.40887 0.53266 4.93887 1.18734 4.93887H3.09529C3.74997 4.93887 4.28263 4.40887 4.28263 3.75745V2.0447C4.28263 1.39328 3.74997 0.863281 3.09529 0.863281Z" fill="#E5811E"/>
<path d="M3.09529 7.11914H1.18734C0.53266 7.11914 0 7.64914 0 8.30056V10.0133C0 10.6647 0.53266 11.1947 1.18734 11.1947H3.09529C3.74997 11.1947 4.28263 10.6647 4.28263 10.0133V8.30056C4.28263 7.64914 3.74997 7.11914 3.09529 7.11914Z" fill="#E5811E"/>
<path d="M3.09529 13.375H1.18734C0.53266 13.375 0 13.905 0 14.5565V16.2692C0 16.9206 0.53266 17.4506 1.18734 17.4506H3.09529C3.74997 17.4506 4.28263 16.9206 4.28263 16.2692V14.5565C4.28263 13.905 3.74997 13.375 3.09529 13.375Z" fill="#E5811E"/>
</svg>
