<svg width="24" height="24" viewBox="0 0 24 24" fill="none" xmlns="http://www.w3.org/2000/svg">
<g clip-path="url(#clip0_4054_9566)">
<path d="M19.5333 21.4634C19.5998 21.6208 19.6336 21.7806 19.6336 21.9426C19.6336 22.1671 19.5741 22.3758 19.4546 22.5705C19.3357 22.7646 19.1684 22.9133 18.9538 23.0159L17.9452 23.4881C17.5517 23.6671 17.1576 23.7971 16.7629 23.8782C16.3683 23.9592 15.9695 24 15.5661 24C14.9172 24 14.2765 23.8921 13.6434 23.6764C13.0102 23.4607 12.4045 23.1517 11.8262 22.7501C11.2478 22.3484 10.7051 21.8622 10.1985 21.2926C9.69184 20.7224 9.23769 20.087 8.83717 19.3856C8.58182 18.9968 8.31365 18.5531 8.03206 18.0547C7.79362 17.6302 7.52136 17.1219 7.21471 16.529C6.90805 15.9366 6.59907 15.2785 6.28658 14.5561C5.96711 13.8332 5.7135 13.2018 5.52636 12.662C5.33922 12.1216 5.19406 11.6727 5.09204 11.3153C4.97252 10.8979 4.89032 10.5399 4.84543 10.242C4.68103 9.68873 4.55976 9.13839 4.48223 8.59096C4.40469 8.04353 4.36621 7.50135 4.36621 6.965C4.36621 6.26366 4.43675 5.58914 4.57725 4.94027C4.71775 4.2914 4.93404 3.688 5.22496 3.13008C5.51587 2.57216 5.8849 2.07312 6.33206 1.63296C6.77921 1.1928 7.30799 0.834843 7.91838 0.557923L8.91296 0.100274C9.06978 0.0332305 9.22719 0 9.3846 0C9.60614 0 9.81252 0.0612141 10.0037 0.184225C10.1944 0.307236 10.3378 0.476887 10.4328 0.69376L12.3468 5.03996C12.4138 5.19737 12.4471 5.35477 12.4471 5.51218C12.4471 5.74363 12.3876 5.95759 12.2681 6.15406C12.1486 6.35052 11.9807 6.49802 11.7638 6.59596L9.79619 7.50077C9.53618 7.62028 9.33738 7.79518 9.19863 8.02662C9.06046 8.25807 8.99108 8.50701 8.99108 8.77402C8.99108 8.9769 9.02898 9.16754 9.10535 9.34652L12.3357 16.7231C12.4622 17.007 12.6365 17.2157 12.8598 17.3492C13.0825 17.4827 13.3256 17.5498 13.588 17.5498C13.7669 17.5498 13.9494 17.509 14.1354 17.4279L16.103 16.5231C16.2581 16.4567 16.4143 16.4229 16.5717 16.4229C16.7886 16.4229 16.9938 16.4841 17.1868 16.6071C17.3797 16.7301 17.5255 16.8986 17.6234 17.1131L19.5333 21.4634Z" fill="#E5811E"/>
</g>
<defs>
<clipPath id="clip0_4054_9566">
<rect width="24" height="24" fill="white"/>
</clipPath>
</defs>
</svg>
