<svg width="14" height="10" viewBox="0 0 14 10" fill="none" xmlns="http://www.w3.org/2000/svg">
<path d="M4.45455 0C3.61067 0 2.80137 0.313177 2.20466 0.870637C1.60795 1.4281 1.27273 2.18417 1.27273 2.97254V8.32311H0V9.51213H12.7273C13.0648 9.51213 13.3885 9.38685 13.6272 9.16387C13.8659 8.94089 14 8.63846 14 8.32311V2.97254C14 2.58218 13.9177 2.19564 13.7578 1.835C13.5979 1.47435 13.3635 1.14666 13.0681 0.870637C12.7726 0.594611 12.4218 0.375655 12.0358 0.226271C11.6498 0.076887 11.236 0 10.8182 0H4.45455ZM4.45455 1.18902C4.96087 1.18902 5.44645 1.37692 5.80448 1.7114C6.1625 2.04587 6.36364 2.49952 6.36364 2.97254V8.32311H2.54545V2.97254C2.54545 2.49952 2.74659 2.04587 3.10461 1.7114C3.46264 1.37692 3.94822 1.18902 4.45455 1.18902ZM8.27273 4.16155H12.0909V6.53959H10.8182V5.35057H8.27273V4.16155Z" fill="#E5811E"/>
</svg>
