<svg width="20" height="23" viewBox="0 0 20 23" fill="none" xmlns="http://www.w3.org/2000/svg">
<path d="M7.32222 20.934L9.6875 21.9857C9.78592 22.0293 9.89236 22.0518 10 22.0518C10.1076 22.0518 10.2141 22.0293 10.3125 21.9857L12.6778 20.934C14.8565 19.9644 16.7076 18.3842 18.0071 16.3846C19.3066 14.385 19.9988 12.0517 20 9.66696V4.87229C20.0001 4.68457 19.9315 4.50331 19.8072 4.3627C19.6828 4.22209 19.5113 4.13187 19.3249 4.10907C17.9831 3.94298 16.6666 3.61368 15.4046 3.1285C13.613 2.43859 11.9544 1.44366 10.5023 0.187799C10.363 0.0666936 10.1846 0 10 0C9.8154 0 9.63702 0.0666936 9.49769 0.187799C8.04573 1.44387 6.38707 2.43882 4.59535 3.1285C3.33337 3.61368 2.01687 3.94298 0.675077 4.10907C0.48875 4.13187 0.317215 4.22209 0.192846 4.3627C0.0684781 4.50331 -0.000119665 4.68457 1.56707e-07 4.87229V9.66696C0.00120261 12.0517 0.693421 14.385 1.99291 16.3846C3.2924 18.3842 5.14348 19.9644 7.32222 20.934ZM6.1223 10.3851C6.29229 10.1729 6.53955 10.0368 6.80979 10.0068C7.08003 9.97673 7.35115 10.0552 7.5636 10.2249L9.45263 11.7363L13.4215 8.20863C13.6247 8.02799 13.8913 7.93548 14.1628 7.95145C14.4342 7.96742 14.6882 8.09055 14.8688 8.29377C15.0494 8.49698 15.1419 8.76363 15.126 9.03506C15.11 9.30648 14.9869 9.56045 14.7837 9.74108L10.1683 13.8436C9.98764 14.0045 9.75592 14.0963 9.51412 14.1027C9.27233 14.1091 9.03606 14.0298 8.84716 13.8787L6.28203 11.8274C6.06986 11.6572 5.93388 11.4097 5.90394 11.1393C5.87399 10.8689 5.95252 10.5977 6.1223 10.3851Z" fill="#E5811E"/>
</svg>
