<svg width="16" height="16" viewBox="0 0 16 16" fill="none" xmlns="http://www.w3.org/2000/svg">
<path d="M8.46174 0C8.74335 0.0525 9.03064 0.0925 9.30656 0.159167C11.1555 0.604583 12.5616 2.05625 12.7674 3.72958C13.0366 5.93792 11.4342 7.88375 8.9619 8.35458C6.35444 8.85042 3.69626 7.25625 3.2729 4.94292C2.84859 2.64667 4.48323 0.553333 7.06983 0.0758333C7.22486 0.0470833 7.38131 0.025 7.53823 0H8.46174Z" fill="#DA6901"/>
<path d="M7.99921 16.0004H0.621998C0.194374 16.0004 0 15.8233 0 15.4433C0.017067 12.6854 2.24621 10.1933 5.29883 9.55205C5.80657 9.44497 6.3385 9.40247 6.86331 9.3833C7.62184 9.35538 8.38037 9.36705 9.13891 9.37788C11.2107 9.40788 12.9259 10.1279 14.2832 11.4912C15.4087 12.6225 15.9733 13.9537 15.9998 15.4583C16.0065 15.8229 15.7998 16 15.3788 16L7.99921 16.0004Z" fill="#DA6901"/>
</svg>
