<svg width="6" height="8" viewBox="0 0 6 8" fill="none" xmlns="http://www.w3.org/2000/svg">
<path d="M0.959405 7.99796C0.768511 8.00222 0.580882 7.95252 0.422495 7.85574C0.264108 7.75896 0.1428 7.6199 0.0753661 7.4578C-0.0804073 7.10219 0.0108739 6.79069 0.297616 6.52781C0.924678 5.95163 1.55869 5.38176 2.18972 4.80918C2.41792 4.60212 2.63521 4.38425 2.87631 4.19159C3.05292 4.05115 3.03704 3.96112 2.8773 3.82068C2.02501 3.06084 1.19058 2.29471 0.345241 1.53037C0.0694129 1.2855 -0.0694933 1.00011 0.037663 0.6508C0.230147 0.0251068 1.06061 -0.220669 1.58051 0.233071C2.77808 1.27829 3.9449 2.35052 5.10675 3.42726C5.19313 3.5023 5.26187 3.59244 5.30883 3.69224C5.35579 3.79203 5.38 3.89942 5.38 4.00793C5.38 4.11645 5.35579 4.22384 5.30883 4.32363C5.26187 4.42343 5.19313 4.51357 5.10675 4.58861C3.9449 5.66895 2.76419 6.72587 1.58448 7.7873C1.50317 7.8612 1.40522 7.91829 1.29733 7.95465C1.18944 7.99101 1.07417 8.00579 0.959405 7.99796Z" fill="#FFFFFFDE"/>
</svg>
