<svg width="80" height="74" viewBox="0 0 80 74" fill="none" xmlns="http://www.w3.org/2000/svg">
<g clip-path="url(#clip0_675_794)">
<mask id="mask0_675_794" style="mask-type:alpha" maskUnits="userSpaceOnUse" x="0" y="0" width="81" height="75">
<path d="M80.002 0.615395V1.69515C79.8248 1.88148 79.6107 2.02864 79.3735 2.12715C79.1362 2.22566 78.8809 2.27335 78.6242 2.26716C78.3034 2.26716 77.9826 2.24627 77.6618 2.2527C77.4116 2.2527 77.1614 2.29126 76.9095 2.31215V50.292C77.4725 50.292 78.0082 50.3081 78.5424 50.292C78.8175 50.2667 79.0946 50.3099 79.349 50.4178C79.6033 50.5257 79.8271 50.6951 80.0004 50.9107V51.8362C79.8868 52.0153 79.7365 52.1682 79.5596 52.2848C79.3826 52.4014 79.183 52.4791 78.9738 52.5126C78.7701 52.5375 78.5647 52.5472 78.3595 52.5415H61.6528C51.4389 52.5415 41.2271 52.5415 31.0174 52.5415H2.18492C1.79997 52.5415 1.41502 52.5415 1.03008 52.5223C0.402934 52.474 0.0356301 52.0724 0.00194719 51.428C-0.0269238 50.8126 0.264994 50.4238 0.895345 50.3419C1.35453 50.3019 1.81554 50.2869 2.27634 50.2969C2.40466 50.2969 2.53297 50.3129 2.65969 50.3065C2.78368 50.3097 2.9045 50.2671 2.99915 50.1868C3.09381 50.1065 3.15566 49.9941 3.17295 49.8711C3.20925 49.6825 3.22804 49.4911 3.22909 49.2991C3.22909 46.6897 3.22909 44.0803 3.22909 41.4709C3.22909 28.6424 3.22909 15.8144 3.22909 2.98699C3.22909 2.87131 3.22909 2.75562 3.22909 2.63993C3.22107 2.35875 3.17776 2.30894 2.89867 2.28001C2.79762 2.26877 2.69337 2.28001 2.59072 2.28001C2.15444 2.28001 1.71817 2.28001 1.2835 2.25591C1.0411 2.24679 0.801976 2.19682 0.57616 2.10809C0.133471 1.91206 -0.0189041 1.52804 0.00194719 1.06368C0.0227985 0.599327 0.229707 0.292433 0.654753 0.160677C0.911848 0.0858297 1.1778 0.0458399 1.4455 0.0417761C2.43513 0.0176745 3.42316 0 4.41119 0C10.7115 0 17.0113 0 23.3105 0H36.6681L57.9172 0.0208881H78.0868C78.228 0.0208881 78.3691 0.0208881 78.5103 0.0208881C79.0765 0.0369558 79.5946 0.189599 80.002 0.615395ZM66.1326 15.9762H66.5978C67.8168 15.9762 69.0358 15.9762 70.2548 15.9762C70.4214 15.9818 70.5883 15.9738 70.7536 15.9521C70.8783 15.9431 70.9955 15.8894 71.0839 15.8009C71.1723 15.7124 71.2258 15.5949 71.2348 15.47C71.2524 15.3816 71.2621 15.2918 71.2637 15.2017C71.2637 14.6233 71.2733 14.0464 71.2781 13.468C71.2789 13.4551 71.2789 13.4423 71.2781 13.4294C71.2412 12.9104 71.0182 12.6999 70.5002 12.6983H54.403C54.3517 12.6983 54.3003 12.6983 54.2426 12.6983C54.1328 12.6872 54.0226 12.7141 53.9303 12.7747C53.8381 12.8352 53.7694 12.9257 53.7357 13.0309C53.6803 13.16 53.6504 13.2986 53.6475 13.4391C53.6475 14.2617 53.6475 15.0844 53.6555 15.9071C53.6636 16.3521 53.8801 16.5642 54.326 16.5803C54.6724 16.5932 55.0189 16.5803 55.3653 16.5803C56.6996 16.5467 58.0343 16.6235 59.356 16.8101C60.3344 16.9595 61.2053 17.3339 61.8758 18.0955C62.049 18.2915 62.1853 18.5197 62.3922 18.8057H61.887C59.3977 18.8057 56.9089 18.8057 54.4206 18.8057C53.8288 18.8057 53.6604 18.9664 53.6523 19.5577C53.6523 20.0718 53.6523 20.586 53.6523 21.1002C53.6523 21.9453 53.7694 22.0642 54.5987 22.0642H62.6344C62.5751 22.2619 62.5446 22.3984 62.4949 22.5254C62.1453 23.3791 61.5009 24.0783 60.6792 24.4953C59.7614 24.9937 58.7395 25.2689 57.6959 25.2987C56.6325 25.3404 55.5674 25.3469 54.504 25.3678C53.8352 25.3822 53.6571 25.5606 53.6539 26.2177C53.6539 26.8347 53.6732 27.4534 53.6427 28.0687C53.6296 28.2849 53.6624 28.5013 53.739 28.7038C53.8155 28.9063 53.9342 29.0902 54.087 29.2433C55.3702 30.646 56.6533 32.0471 57.8996 33.4836C59.7489 35.619 61.5694 37.7801 63.3931 39.938C63.5129 40.0963 63.6694 40.223 63.8492 40.307C64.0289 40.391 64.2263 40.4298 64.4244 40.42C65.5151 40.3975 66.6058 40.412 67.6965 40.412C67.8116 40.4174 67.9269 40.4131 68.0413 40.3991C68.1432 40.3841 68.2398 40.344 68.3223 40.2823C68.4049 40.2207 68.471 40.1395 68.5145 40.0461C68.5581 39.9526 68.5778 39.8497 68.5719 39.7467C68.566 39.6438 68.5347 39.5438 68.4808 39.456C68.4335 39.3793 68.3799 39.3067 68.3204 39.239C65.5263 35.8327 62.7291 32.4295 59.7457 29.1855C59.6784 29.1148 59.6222 29.0328 59.5276 28.9155C59.7361 28.8609 59.9077 28.8191 60.0761 28.7709C60.8781 28.5411 61.6977 28.3676 62.4708 28.0671C65.0371 27.0645 66.6956 25.2328 67.2827 22.4948C67.3741 22.0707 67.3741 22.0707 67.8055 22.069H70.5756C70.8001 22.069 71.0359 22.0514 71.1546 21.8393C71.2373 21.6815 71.2818 21.5065 71.2845 21.3283C71.3006 20.7756 71.2925 20.2229 71.2845 19.6701C71.2845 18.9696 71.1241 18.8121 70.4216 18.8105C69.5105 18.8105 68.5995 18.8105 67.6949 18.8105C67.35 18.8105 67.2955 18.78 67.2281 18.4795C67.0552 17.7938 66.7851 17.1364 66.4262 16.5273C66.3395 16.365 66.2577 16.2075 66.1326 15.9762ZM22.9031 17.4946C23.4147 17.4946 23.928 17.4946 24.4413 17.4946C24.5634 17.4933 24.6846 17.5171 24.7971 17.5647C24.9097 17.6122 25.0113 17.6824 25.0957 17.7709C26.2302 18.9246 27.3679 20.075 28.5089 21.2223C28.7607 21.4762 28.7976 21.7879 28.7832 22.1108C28.7703 22.3679 28.7078 22.6202 28.6901 22.8757C28.6409 23.2054 28.6323 23.54 28.6645 23.8719C28.9403 25.3983 29.7872 26.5037 31.2757 26.9681C32.7641 27.4325 34.073 26.9681 35.1252 25.8643C36.0458 24.8905 36.2479 23.6919 35.9432 22.4145C35.8724 22.1674 35.8729 21.9052 35.9448 21.6584C36.0166 21.4116 36.1567 21.1902 36.349 21.0198C37.383 20.0022 38.4068 18.9739 39.4205 17.9348C39.5974 17.7295 39.8312 17.5816 40.0923 17.5098C40.3533 17.438 40.6298 17.4455 40.8865 17.5315C41.0833 17.589 41.2845 17.6298 41.488 17.6536C43.9998 17.9284 46.2998 15.3495 45.3375 12.7273C44.8002 11.2667 43.7688 10.3396 42.2002 10.187C40.5738 10.0263 39.2874 10.669 38.471 12.1151C37.977 12.994 37.9192 13.9516 38.1502 14.9221C38.2173 15.1503 38.2189 15.3928 38.1548 15.6219C38.0907 15.8509 37.9635 16.0572 37.7877 16.2172C36.7184 17.2712 35.6577 18.3349 34.6055 19.4082C34.5028 19.5231 34.3772 19.6152 34.2369 19.6785C34.0966 19.7419 33.9446 19.7752 33.7907 19.7762C32.8689 19.7762 31.9461 19.7762 31.0223 19.7762C30.836 19.7708 30.6528 19.7272 30.484 19.6482C30.3152 19.5691 30.1643 19.4563 30.0406 19.3166C29.0093 18.2771 27.9748 17.2407 26.9226 16.2236C26.758 16.0817 26.6317 15.9007 26.5552 15.6971C26.4787 15.4936 26.4544 15.2741 26.4847 15.0587C26.5464 14.5615 26.5721 14.0605 26.5617 13.5596C26.5435 12.8471 26.3064 12.1577 25.8827 11.5852C25.459 11.0127 24.8694 10.585 24.1943 10.3605C23.6937 10.1929 23.1646 10.1279 22.6384 10.1693C21.7879 10.2322 20.9855 10.5884 20.3676 11.1772C19.7497 11.766 19.3545 12.5511 19.2493 13.3989C19.1894 13.949 19.2301 14.5055 19.3696 15.041C19.4211 15.228 19.4209 15.4254 19.3689 15.6123C19.3169 15.7991 19.2151 15.9682 19.0745 16.1015C19.0023 16.1754 18.9285 16.2461 18.8563 16.3184C17.8587 17.3178 16.8482 18.306 15.8682 19.3231C15.4479 19.7569 15.0165 19.9224 14.4246 19.728C13.7197 19.5074 12.9614 19.5294 12.2705 19.7906C10.588 20.3771 9.49731 22.2008 9.87584 24.1177C10.2672 26.1133 12.301 27.5096 14.2835 27.0629C15.5233 26.7817 16.3943 25.9944 16.9605 24.8697C17.174 24.4555 17.2793 23.9939 17.2668 23.528C17.2589 23.1563 17.2235 22.7858 17.161 22.4193C17.0599 21.8891 17.1417 21.4553 17.5459 21.0487C18.6222 19.9835 19.6775 18.8957 20.7346 17.8111C20.8299 17.7066 20.9465 17.6238 21.0766 17.5683C21.2067 17.5129 21.3471 17.4861 21.4884 17.4897C21.9536 17.4994 22.4283 17.4946 22.9031 17.4946ZM12.9939 42.549C14.2514 42.549 15.5073 42.549 16.7648 42.549C17.6245 42.549 18.1554 42.0155 18.1586 41.1479C18.1586 38.6542 18.1586 36.161 18.1586 33.6684C18.1586 32.8039 17.6309 32.2673 16.7664 32.264C14.2642 32.2565 11.7626 32.2565 9.26153 32.264C8.41304 32.264 7.9078 32.7991 7.89657 33.6491V33.7648C7.89657 36.1931 7.89657 38.622 7.89657 41.0515C7.88907 41.2684 7.91504 41.4852 7.97356 41.6942C8.14358 42.2292 8.63118 42.5442 9.25671 42.5458C10.511 42.5522 11.7557 42.549 12.9939 42.549ZM34.0682 31.9443H21.9503C21.822 31.9443 21.6937 31.9443 21.5654 31.9443C21.3572 31.9531 21.1608 32.0437 21.0188 32.1964C20.8768 32.3492 20.8006 32.5519 20.8067 32.7605C20.7955 33.5189 20.7939 34.2773 20.8067 35.0357C20.8066 35.2444 20.8876 35.445 21.0325 35.5949C21.1774 35.7449 21.3748 35.8324 21.583 35.8391C21.7098 35.8504 21.8397 35.8391 21.968 35.8391H46.1779C46.2806 35.8391 46.3832 35.8391 46.4859 35.8391C47.0489 35.8198 47.3568 35.5097 47.3617 34.9393C47.3697 34.2452 47.3617 33.5511 47.3617 32.8505C47.3617 32.2512 47.0553 31.9475 46.4667 31.9298C46.364 31.9298 46.2613 31.9298 46.1587 31.9298L34.0682 31.9443ZM34.0682 42.3273H46.1924C46.3336 42.3321 46.475 42.3289 46.6158 42.3176C46.8045 42.3073 46.9827 42.2276 47.1164 42.094C47.2502 41.9603 47.33 41.7819 47.3408 41.593C47.3617 40.7896 47.3601 39.9733 47.3408 39.1635C47.3326 38.981 47.2593 38.8075 47.1342 38.6745C47.0091 38.5415 46.8405 38.4579 46.6591 38.4389C46.532 38.423 46.4038 38.4177 46.2758 38.4228H21.8862C21.7706 38.4188 21.6549 38.422 21.5397 38.4324C21.3377 38.4457 21.1485 38.5367 21.0119 38.6864C20.8753 38.8361 20.8017 39.033 20.8067 39.2358C20.795 39.9942 20.795 40.7526 20.8067 41.511C20.8036 41.7195 20.8815 41.9211 21.0239 42.0731C21.1664 42.2251 21.3623 42.3157 21.5702 42.3257C21.6985 42.3369 21.8268 42.3257 21.9552 42.3257L34.0682 42.3273Z" fill="black"/>
<path d="M41.084 54.6883C41.4336 54.6707 41.7015 54.6449 41.9694 54.6449C43.1627 54.6449 44.356 54.6449 45.5494 54.6449C47.4741 54.6385 49.3988 54.6299 51.3236 54.6192H51.5161C51.7542 54.5996 51.9928 54.6528 52.2001 54.7718C52.4075 54.8909 52.5739 55.0702 52.6773 55.286C53.2884 56.3851 53.9188 57.4745 54.5443 58.5655C57.0732 62.9777 59.6015 67.3904 62.1294 71.8037C62.2786 72.0556 62.395 72.3256 62.4758 72.6071C62.6266 73.1598 62.3716 73.6081 61.8342 73.7832C61.6394 73.8467 61.436 73.8803 61.2311 73.8829C58.5109 73.9118 55.7911 73.9353 53.0719 73.9536C52.7814 73.9659 52.4935 73.8952 52.2416 73.7499C51.9897 73.6045 51.7842 73.3904 51.6492 73.1325C48.2114 67.1531 44.7715 61.1759 41.3294 55.2009C41.2412 55.0627 41.185 54.9085 41.084 54.6883Z" fill="black"/>
<path d="M38.9952 54.6995C38.907 54.8602 38.8572 54.9695 38.7995 55.0691C35.3692 61.0313 31.9367 66.9935 28.5022 72.9557C28.4589 73.0328 28.4123 73.1164 28.3642 73.1871C28.2175 73.446 28.0018 73.659 27.7412 73.8023C27.4806 73.9456 27.1855 74.0135 26.8886 73.9985C26.0561 73.9857 25.2221 73.9712 24.3896 73.9616C22.6253 73.9375 20.8513 73.9246 19.0822 73.8909C18.7631 73.8887 18.446 73.8406 18.1407 73.7479C18.0242 73.7186 17.9151 73.6654 17.8203 73.5916C17.7255 73.5179 17.647 73.4252 17.5898 73.3194C17.5327 73.2136 17.4981 73.0971 17.4883 72.9773C17.4784 72.8574 17.4936 72.7368 17.5328 72.6231C17.6169 72.314 17.7403 72.017 17.9001 71.7394C20.769 66.7573 23.6433 61.7763 26.5229 56.7964C26.8052 56.3063 27.0939 55.8211 27.373 55.331C27.4783 55.1179 27.6437 54.9404 27.8487 54.8205C28.0536 54.7005 28.2892 54.6434 28.5262 54.6562C30.9498 54.6562 33.3733 54.6337 35.7969 54.624C36.6679 54.624 37.5404 54.624 38.4129 54.6417C38.5878 54.6465 38.761 54.677 38.9952 54.6995Z" fill="black"/>
<path d="M22.9238 12.5636C23.1053 12.5563 23.2864 12.5857 23.4563 12.6501C23.6262 12.7144 23.7815 12.8123 23.9128 12.938C24.0442 13.0637 24.1489 13.2146 24.2208 13.3817C24.2928 13.5487 24.3304 13.7286 24.3315 13.9106C24.3325 14.0925 24.297 14.2728 24.2271 14.4408C24.1572 14.6087 24.0542 14.7608 23.9244 14.8881C23.7945 15.0153 23.6404 15.115 23.4713 15.1814C23.3022 15.2477 23.1214 15.2793 22.9399 15.2742C22.7584 15.2815 22.5773 15.252 22.4074 15.1877C22.2375 15.1234 22.0822 15.0255 21.9509 14.8998C21.8195 14.7741 21.7148 14.6232 21.6429 14.4561C21.5709 14.289 21.5333 14.1092 21.5323 13.9272C21.5312 13.7452 21.5667 13.5649 21.6366 13.397C21.7065 13.2291 21.8095 13.077 21.9393 12.9497C22.0692 12.8225 22.2233 12.7227 22.3924 12.6564C22.5615 12.59 22.7423 12.5585 22.9238 12.5636Z" fill="black"/>
<path d="M14.8545 23.3578C14.8558 23.535 14.8221 23.7108 14.7553 23.875C14.6885 24.0392 14.5899 24.1885 14.4653 24.3144C14.3407 24.4403 14.1925 24.5402 14.0291 24.6085C13.8658 24.6768 13.6906 24.7121 13.5136 24.7123C13.3308 24.71 13.1503 24.6715 12.9823 24.5992C12.8143 24.5268 12.6623 24.4219 12.5349 24.2906C12.4075 24.1592 12.3072 24.0039 12.2398 23.8336C12.1725 23.6634 12.1393 23.4814 12.1423 23.2983C12.1565 22.9406 12.3113 22.603 12.573 22.3591C12.8348 22.1153 13.1821 21.9851 13.5393 21.9968C13.7161 21.9956 13.8912 22.0303 14.0542 22.0988C14.2172 22.1673 14.3646 22.2682 14.4875 22.3955C14.6105 22.5227 14.7064 22.6735 14.7695 22.8389C14.8325 23.0043 14.8615 23.1808 14.8545 23.3578Z" fill="black"/>
<path d="M32.3645 24.712C32.1844 24.7115 32.0062 24.6755 31.84 24.6059C31.6739 24.5364 31.5231 24.4346 31.3963 24.3066C31.2695 24.1785 31.1692 24.0266 31.1011 23.8596C31.033 23.6926 30.9985 23.5137 30.9995 23.3334C30.9974 22.9724 31.1385 22.6254 31.3918 22.3687C31.645 22.1119 31.9897 21.9665 32.3501 21.9644C32.7104 21.9622 33.0568 22.1036 33.313 22.3573C33.5693 22.611 33.7145 22.9563 33.7166 23.3173C33.7213 23.6817 33.5817 24.0331 33.3282 24.2945C33.0748 24.5559 32.7282 24.706 32.3645 24.712Z" fill="black"/>
<path d="M41.7639 12.5635C42.0326 12.5613 42.2959 12.6392 42.5202 12.7874C42.7446 12.9355 42.9198 13.1472 43.0236 13.3955C43.1275 13.6437 43.1553 13.9173 43.1034 14.1814C43.0515 14.4455 42.9223 14.6882 42.7323 14.8785C42.5424 15.0688 42.3001 15.1982 42.0365 15.2502C41.7728 15.3022 41.4997 15.2744 41.2519 15.1703C41.0041 15.0663 40.7928 14.8907 40.6449 14.666C40.497 14.4413 40.4192 14.1776 40.4214 13.9084C40.4214 13.7318 40.4562 13.5569 40.5236 13.3937C40.5911 13.2306 40.69 13.0823 40.8146 12.9574C40.9393 12.8325 41.0873 12.7335 41.2502 12.6659C41.4131 12.5983 41.5876 12.5635 41.7639 12.5635Z" fill="black"/>
</mask>
<g mask="url(#mask0_675_794)">
<rect width="80" height="74" fill="url(#paint0_linear_675_794)"/>
</g>
</g>
<defs>
<linearGradient id="paint0_linear_675_794" x1="26.3958" y1="20.1275" x2="58.5373" y2="79.9347" gradientUnits="userSpaceOnUse">
<stop stop-color="#D6282D"/>
<stop offset="1" stop-color="#F68013"/>
</linearGradient>
<clipPath id="clip0_675_794">
<rect width="80" height="74" fill="white"/>
</clipPath>
</defs>
</svg>
