<svg width="250" height="7" viewBox="0 0 250 7" fill="none" xmlns="http://www.w3.org/2000/svg">
<g clip-path="url(#clip0_279_719)">
<mask id="mask0_279_719" style="mask-type:alpha" maskUnits="userSpaceOnUse" x="0" y="0" width="251" height="7">
<path d="M125.001 5.34448C124.596 5.34304 124.2 5.22273 123.864 4.99875C123.528 4.77477 123.266 4.45716 123.112 4.08602C122.958 3.71488 122.918 3.30685 122.998 2.91347C123.078 2.52008 123.274 2.15898 123.561 1.87574C123.848 1.59251 124.214 1.39985 124.611 1.3221C125.009 1.24434 125.421 1.28497 125.795 1.43886C126.169 1.59276 126.489 1.853 126.714 2.18675C126.939 2.52049 127.059 2.91277 127.059 3.31404C127.059 3.58116 127.005 3.84557 126.902 4.09217C126.798 4.33878 126.646 4.56274 126.455 4.75129C126.264 4.93983 126.037 5.08926 125.788 5.19104C125.538 5.29282 125.271 5.34496 125.001 5.34448ZM125.001 2.0637C124.75 2.06514 124.504 2.14024 124.296 2.27954C124.088 2.41885 123.925 2.61612 123.83 2.8465C123.735 3.07688 123.71 3.33006 123.76 3.57414C123.81 3.81822 123.931 4.04229 124.109 4.2181C124.287 4.3939 124.514 4.51359 124.761 4.56208C125.007 4.61057 125.263 4.58569 125.495 4.49058C125.728 4.39546 125.927 4.23437 126.067 4.02759C126.207 3.82081 126.282 3.57761 126.283 3.32862C126.283 3.16207 126.25 2.99706 126.186 2.84314C126.122 2.68921 126.027 2.54942 125.908 2.43181C125.789 2.31421 125.648 2.22113 125.492 2.15795C125.336 2.09477 125.17 2.06273 125.001 2.0637Z" fill="black"/>
<path d="M125.002 2.06729C125.708 2.06729 126.28 2.63198 126.28 3.32857C126.28 4.02515 125.708 4.58984 125.002 4.58984C124.297 4.58984 123.725 4.02515 123.725 3.32857C123.725 2.63198 124.297 2.06729 125.002 2.06729Z" fill="black"/>
<path d="M125.002 6.43799C124.381 6.43655 123.775 6.25296 123.26 5.91041C122.744 5.56786 122.343 5.08173 122.106 4.51343C121.87 3.94512 121.808 3.32015 121.93 2.71745C122.052 2.11476 122.352 1.56139 122.792 1.12726C123.231 0.69312 123.791 0.397696 124.4 0.278307C125.009 0.158918 125.64 0.22092 126.213 0.45648C126.787 0.69204 127.277 1.09059 127.621 1.60178C127.966 2.11296 128.15 2.71385 128.15 3.32854C128.147 4.15359 127.814 4.94391 127.224 5.52663C126.635 6.10935 125.836 6.43703 125.002 6.43799ZM125.002 1.2981C124.597 1.29954 124.201 1.41984 123.865 1.64383C123.529 1.86781 123.267 2.18542 123.113 2.55656C122.959 2.9277 122.919 3.33572 122.999 3.7291C123.079 4.12249 123.275 4.4836 123.562 4.76683C123.849 5.05006 124.215 5.24272 124.612 5.32048C125.01 5.39823 125.422 5.3576 125.796 5.20371C126.17 5.04982 126.49 4.78957 126.715 4.45583C126.94 4.12208 127.06 3.72981 127.06 3.32854C127.06 3.06142 127.006 2.79701 126.903 2.5504C126.799 2.3038 126.647 2.07983 126.456 1.89129C126.265 1.70274 126.038 1.55332 125.789 1.45154C125.539 1.34976 125.272 1.29762 125.002 1.2981Z" fill="black"/>
<path d="M12.4958 3.46331C11.9285 3.45589 11.3746 3.63399 10.92 3.97001C10.5569 4.2352 10.2845 4.60412 10.1395 5.02715C9.76942 4.45994 9.2284 4.02248 8.59314 3.77681C8.04186 3.99096 7.54243 4.31789 7.12751 4.73625C6.71259 5.1546 6.39152 5.65495 6.18529 6.20459C5.298 4.76834 3.75167 4.05021 2.43362 3.68568C1.63933 3.47322 0.822449 3.35453 0 3.33208C0.823147 3.30887 1.64037 3.18646 2.43362 2.96755C3.75167 2.60302 5.298 1.89583 6.18529 0.452285C6.61237 1.74637 7.6948 2.47908 8.59314 2.88735C9.22717 2.63595 9.76724 2.1967 10.1395 1.62972C10.2479 1.9511 10.4322 2.24227 10.677 2.47908C11.1731 2.94536 11.8339 3.20056 12.5179 3.18992L12.4958 3.46331Z" fill="black"/>
<path d="M9.87402 3.86816V3.32866V2.78915H122.943V3.32866V3.86816H9.87402Z" fill="black"/>
<path d="M247.57 3.68568C246.248 4.05021 244.702 4.77927 243.818 6.20459C243.611 5.65483 243.289 5.15446 242.874 4.73614C242.458 4.31781 241.958 3.99093 241.407 3.77681C240.771 4.02248 240.23 4.45994 239.86 5.02715C239.717 4.60312 239.444 4.23367 239.08 3.97001C238.625 3.63399 238.071 3.45589 237.504 3.46331V3.18992C238.188 3.20134 238.849 2.94604 239.345 2.47908C239.591 2.2438 239.774 1.95204 239.879 1.62972C240.251 2.1967 240.791 2.63595 241.425 2.88735C241.976 2.66948 242.474 2.34045 242.89 1.9212C243.305 1.50196 243.627 1.0017 243.836 0.452285C244.72 1.91041 246.266 2.61396 247.588 2.96755C248.38 3.18634 249.196 3.30875 250.018 3.33208C249.191 3.35321 248.369 3.47191 247.57 3.68568Z" fill="black"/>
<path d="M240.125 3.86816H127.06V2.78915H240.125V3.86816Z" fill="black"/>
</mask>
<g mask="url(#mask0_279_719)">
<rect y="-1.78101" width="250" height="10" fill="url(#paint0_linear_279_719)"/>
</g>
</g>
<defs>
<linearGradient id="paint0_linear_279_719" x1="256.5" y1="-1.99994" x2="-9.11683e-08" y2="-1.99983" gradientUnits="userSpaceOnUse">
<stop stop-color="#C3852F"/>
<stop offset="0.234" stop-color="#FDE67E"/>
<stop offset="0.484" stop-color="#FED441"/>
<stop offset="0.724" stop-color="#FDE67E"/>
<stop offset="1" stop-color="#C3852F"/>
</linearGradient>
<clipPath id="clip0_279_719">
<rect width="250" height="6.21891" fill="white" transform="matrix(1 0 0 -1 0 6.21899)"/>
</clipPath>
</defs>
</svg>
