<svg width="16" height="15" viewBox="0 0 16 15" fill="none" xmlns="http://www.w3.org/2000/svg">
<path d="M12.7743 2.53936e-07C13.3047 -0.00020525 13.8269 0.124325 14.2947 0.362555C14.7625 0.600785 15.1614 0.94536 15.4562 1.36575C15.7509 1.78613 15.9324 2.26935 15.9844 2.77258C16.0365 3.27582 15.9576 3.78352 15.7546 4.25072C15.5517 4.71791 15.2311 5.13016 14.8211 5.45095C14.4111 5.77173 13.9245 5.99115 13.4043 6.08974C12.8841 6.18834 12.3465 6.16307 11.839 6.01619C11.3315 5.8693 10.8699 5.60533 10.495 5.24766C10.4664 5.22035 10.439 5.19305 10.4117 5.1645L6.35813 6.77802C6.45114 7.14131 6.47451 7.51764 6.42712 7.88886L10.5471 9.71959C11.117 9.2037 11.8655 8.90505 12.6509 8.88024C13.4363 8.85542 14.204 9.10616 14.8085 9.58494C15.4129 10.0637 15.8122 10.7373 15.9306 11.478C16.0491 12.2187 15.8784 12.9751 15.451 13.6039C15.0237 14.2327 14.3692 14.6901 13.6118 14.8896C12.8543 15.089 12.0464 15.0166 11.3412 14.6861C10.6359 14.3555 10.0824 13.7898 9.78534 13.0961C9.48831 12.4025 9.46848 11.629 9.72959 10.9223L5.90513 9.21692C5.5357 9.74395 5.00444 10.1492 4.38409 10.3772C3.76375 10.6052 3.08465 10.6448 2.4398 10.4906C1.79494 10.3363 1.21586 9.99577 0.781847 9.51558C0.347834 9.03538 0.0801113 8.439 0.0153409 7.8081C-0.0494295 7.17721 0.0919191 6.54265 0.420031 5.99132C0.748143 5.43999 1.24697 4.99884 1.84822 4.72829C2.44946 4.45774 3.12372 4.37101 3.77866 4.47998C4.4336 4.58895 5.0372 4.8883 5.5068 5.33702C5.56408 5.39163 5.62005 5.44873 5.67212 5.50706L9.67362 3.91589C9.5371 3.4585 9.51373 2.97716 9.60533 2.50971C9.69693 2.04226 9.90102 1.60144 10.2015 1.22192C10.502 0.842398 10.8908 0.53452 11.3372 0.322494C11.7837 0.110469 12.2756 7.76594e-05 12.7743 2.53936e-07Z" fill="#E5811E"/>
</svg>
