<svg width="20" height="23" viewBox="0 0 20 23" fill="none" xmlns="http://www.w3.org/2000/svg">
<path d="M16.6667 0H3.33333C2.44928 0 1.60143 0.35119 0.976311 0.976311C0.35119 1.60143 0 2.44928 0 3.33333V18.8889C0 19.7729 0.35119 20.6208 0.976311 21.2459C1.60143 21.871 2.44928 22.2222 3.33333 22.2222H16.6667C17.5507 22.2222 18.3986 21.871 19.0237 21.2459C19.6488 20.6208 20 19.7729 20 18.8889V3.33333C20 2.44928 19.6488 1.60143 19.0237 0.976311C18.3986 0.35119 17.5507 0 16.6667 0ZM5.55556 3.88889H10C10.2947 3.88889 10.5773 4.00595 10.7857 4.21433C10.994 4.4227 11.1111 4.70531 11.1111 5C11.1111 5.29468 10.994 5.5773 10.7857 5.78567C10.5773 5.99405 10.2947 6.11111 10 6.11111H5.55556C5.26087 6.11111 4.97826 5.99405 4.76988 5.78567C4.56151 5.5773 4.44444 5.29468 4.44444 5C4.44444 4.70531 4.56151 4.4227 4.76988 4.21433C4.97826 4.00595 5.26087 3.88889 5.55556 3.88889ZM14.4444 18.3333H5.55556C5.26087 18.3333 4.97826 18.2163 4.76988 18.0079C4.56151 17.7995 4.44444 17.5169 4.44444 17.2222C4.44444 16.9275 4.56151 16.6449 4.76988 16.4365C4.97826 16.2282 5.26087 16.1111 5.55556 16.1111H14.4444C14.7391 16.1111 15.0217 16.2282 15.2301 16.4365C15.4385 16.6449 15.5556 16.9275 15.5556 17.2222C15.5556 17.5169 15.4385 17.7995 15.2301 18.0079C15.0217 18.2163 14.7391 18.3333 14.4444 18.3333ZM14.4444 14.2556H5.55556C5.26087 14.2556 4.97826 14.1385 4.76988 13.9301C4.56151 13.7217 4.44444 13.4391 4.44444 13.1444C4.44444 12.8498 4.56151 12.5671 4.76988 12.3588C4.97826 12.1504 5.26087 12.0333 5.55556 12.0333H14.4444C14.7391 12.0333 15.0217 12.1504 15.2301 12.3588C15.4385 12.5671 15.5556 12.8498 15.5556 13.1444C15.5556 13.4391 15.4385 13.7217 15.2301 13.9301C15.0217 14.1385 14.7391 14.2556 14.4444 14.2556ZM14.4444 10.1889H5.55556C5.26087 10.1889 4.97826 10.0718 4.76988 9.86345C4.56151 9.65508 4.44444 9.37246 4.44444 9.07778C4.44444 8.78309 4.56151 8.50048 4.76988 8.2921C4.97826 8.08373 5.26087 7.96667 5.55556 7.96667H14.4444C14.7391 7.96667 15.0217 8.08373 15.2301 8.2921C15.4385 8.50048 15.5556 8.78309 15.5556 9.07778C15.5556 9.37246 15.4385 9.65508 15.2301 9.86345C15.0217 10.0718 14.7391 10.1889 14.4444 10.1889Z" fill="#E5811E"/>
</svg>
