<svg width="41" height="43" viewBox="0 0 41 43" fill="none" xmlns="http://www.w3.org/2000/svg">
<mask id="mask0_683_875" style="mask-type:alpha" maskUnits="userSpaceOnUse" x="0" y="0" width="41" height="43">
<path d="M1.13913 27.1581H25.2836C25.853 27.1581 26.4225 26.9318 26.878 26.4791L31.0919 22.2923C31.5475 21.8397 31.5475 21.1607 31.0919 20.7081L26.878 16.5212C26.4225 16.0686 25.853 15.8423 25.2836 15.8423H1.13913C0.455797 15.8423 0.000242233 16.2949 0.000242233 16.9739V26.0265C0.000242233 26.7054 0.455797 27.1581 1.13913 27.1581Z" fill="#3F51B5"/>
<path d="M38.7222 1.13135H36.4444V41.8682H38.7222V1.13135Z" fill="#CFD8DC"/>
<path d="M37.5833 9.05266C35.6964 9.05266 34.1667 7.53278 34.1667 5.65792C34.1667 3.78306 35.6964 2.26318 37.5833 2.26318C39.4703 2.26318 41 3.78306 41 5.65792C41 7.53278 39.4703 9.05266 37.5833 9.05266Z" fill="#90A4AE"/>
<path d="M37.5833 24.8949C35.6964 24.8949 34.1667 23.3751 34.1667 21.5002C34.1667 19.6253 35.6964 18.1055 37.5833 18.1055C39.4703 18.1055 41 19.6253 41 21.5002C41 23.3751 39.4703 24.8949 37.5833 24.8949Z" fill="#90A4AE"/>
<path d="M37.5833 40.7367C35.6964 40.7367 34.1667 39.2169 34.1667 37.342C34.1667 35.4671 35.6964 33.9473 37.5833 33.9473C39.4703 33.9473 41 35.4671 41 37.342C41 39.2169 39.4703 40.7367 37.5833 40.7367Z" fill="#90A4AE"/>
<path d="M10.2502 42.9999H25.2836C25.853 42.9999 26.4225 42.7736 26.878 42.3209L31.0919 38.1341C31.5475 37.6815 31.5475 37.0025 31.0919 36.5499L26.878 32.363C26.4225 31.9104 25.853 31.6841 25.2836 31.6841H10.2502C9.56691 31.6841 9.11135 32.1367 9.11135 32.8157V41.8683C9.11135 42.5472 9.56691 42.9999 10.2502 42.9999Z" fill="#448AFF"/>
<path d="M9.11135 11.3158H25.2836C25.853 11.3158 26.4225 11.0895 26.878 10.6368L31.0919 6.45C31.5475 5.99737 31.5475 5.31842 31.0919 4.86579L26.878 0.678948C26.4225 0.226316 25.853 0 25.2836 0H9.11135C8.42802 0 7.97246 0.452632 7.97246 1.13158V10.1842C7.97246 10.8632 8.42802 11.3158 9.11135 11.3158Z" fill="#00BCD4"/>
</mask>
<g mask="url(#mask0_683_875)">
<rect width="54" height="55.2547" transform="matrix(-0.921255 0.388958 0.388958 0.921255 35.2632 -14.1333)" fill="url(#paint0_linear_683_875)"/>
</g>
<defs>
<linearGradient id="paint0_linear_683_875" x1="17.8171" y1="15.0289" x2="43.0983" y2="57.5544" gradientUnits="userSpaceOnUse">
<stop stop-color="#D6282D"/>
<stop offset="1" stop-color="#F68013"/>
</linearGradient>
</defs>
</svg>
