<svg width="30" height="30" viewBox="0 0 30 30" fill="none" xmlns="http://www.w3.org/2000/svg">
<g clip-path="url(#clip0_4054_9570)">
<path d="M0 30L2.06895 22.5C0.72416 20.1724 0 17.5862 0 14.8965C0 6.72416 6.72416 0 14.9483 0C23.1724 0 30 6.72416 30 14.8965C30 23.0689 23.1724 30 14.9483 30C12.3621 30 9.87932 29.1724 7.65516 27.9311L0 30Z" fill="#EDEDED"/>
<path d="M8.06867 25.2411L8.5342 25.4997C10.448 26.6894 12.6721 27.4135 14.9997 27.4135C21.7756 27.4135 27.4135 21.7756 27.4135 14.8963C27.4135 8.01693 21.7756 2.58594 14.948 2.58594C8.12041 2.58594 2.58594 8.06867 2.58594 14.8963C2.58594 17.2756 3.25836 19.6031 4.49973 21.5687L4.8101 22.0342L3.62047 26.379L8.06867 25.2411Z" fill="#55CD6C"/>
<path d="M10.9659 7.9658L9.98319 7.91406C9.67282 7.91406 9.36251 8.01754 9.15561 8.22443C8.69009 8.63822 7.91425 9.41406 7.70735 10.4486C7.3453 12.0003 7.91425 13.8624 9.25909 15.7244C10.6039 17.5865 13.1901 20.5865 17.7418 21.8796C19.1901 22.2934 20.328 22.0347 21.2591 21.4658C21.9833 21.0003 22.4487 20.2762 22.6039 19.5003L22.7591 18.7761C22.8108 18.5692 22.7074 18.3106 22.5005 18.2072L19.2418 16.7072C19.0349 16.6037 18.7763 16.6554 18.6211 16.8623L17.328 18.5175C17.2246 18.621 17.0694 18.6726 16.9142 18.621C16.0349 18.3106 13.0867 17.0692 11.4832 13.9658C11.4315 13.8106 11.4315 13.6554 11.5349 13.552L12.7763 12.1555C12.8798 12.0003 12.9315 11.7934 12.8798 11.6382L11.3798 8.27617C11.328 8.12096 11.1728 7.9658 10.9659 7.9658Z" fill="#FEFEFE"/>
</g>
<defs>
<clipPath id="clip0_4054_9570">
<rect width="30" height="30" fill="white"/>
</clipPath>
</defs>
</svg>
